<mxfile host="app.diagrams.net" modified="2023-01-12T06:32:00.703Z" agent="5.0 (Windows NT 10.0; Win64; x64) AppleWebKit/537.36 (KHTML, like Gecko) Chrome/107.0.0.0 Safari/537.36 OPR/93.0.0.0" version="20.8.4" etag="LxJniHRcVdlVAE6t-KcP" type="github">
  <diagram id="PNOysJ5CJQv__6pGPaxd" name="PÃ¡gina-1">
    <mxGraphModel dx="1990" dy="1094" grid="1" gridSize="10" guides="1" tooltips="1" connect="1" arrows="1" fold="1" page="1" pageScale="1" pageWidth="827" pageHeight="1169" math="0" shadow="0">
      <root>
        <mxCell id="0" />
        <mxCell id="1" parent="0" />
        <mxCell id="J-XnqaCcBeAszSq59GeC-1" value="&lt;b&gt;Planta 2&lt;/b&gt;" style="verticalLabelPosition=bottom;html=1;verticalAlign=top;align=center;shape=mxgraph.floorplan.room;fillColor=strokeColor;" vertex="1" parent="1">
          <mxGeometry x="70" y="70" width="810" height="530" as="geometry" />
        </mxCell>
        <mxCell id="J-XnqaCcBeAszSq59GeC-2" value="Servidor" style="strokeColor=#666666;html=1;verticalLabelPosition=bottom;labelBackgroundColor=#ffffff;verticalAlign=top;outlineConnect=0;shadow=0;dashed=0;shape=mxgraph.rack.general.server_1;" vertex="1" parent="1">
          <mxGeometry x="900" y="130" width="43" height="100" as="geometry" />
        </mxCell>
        <mxCell id="J-XnqaCcBeAszSq59GeC-3" value="Sala de equipos" style="verticalLabelPosition=bottom;html=1;verticalAlign=top;align=center;shape=mxgraph.floorplan.room;fillColor=strokeColor;" vertex="1" parent="1">
          <mxGeometry x="870" y="70" width="190" height="210" as="geometry" />
        </mxCell>
        <mxCell id="J-XnqaCcBeAszSq59GeC-4" value="Text" style="text;html=1;align=center;verticalAlign=middle;resizable=0;points=[];autosize=1;strokeColor=none;fillColor=none;" vertex="1" parent="1">
          <mxGeometry x="315" y="585" width="50" height="30" as="geometry" />
        </mxCell>
        <mxCell id="J-XnqaCcBeAszSq59GeC-5" value="&lt;b&gt;Planta 1&lt;/b&gt;" style="verticalLabelPosition=bottom;html=1;verticalAlign=top;align=center;shape=mxgraph.floorplan.room;fillColor=strokeColor;" vertex="1" parent="1">
          <mxGeometry x="80" y="700" width="1010" height="530" as="geometry" />
        </mxCell>
        <mxCell id="J-XnqaCcBeAszSq59GeC-7" value="TC" style="verticalLabelPosition=middle;html=1;verticalAlign=middle;align=left;shape=mxgraph.floorplan.room;fillColor=strokeColor;labelPosition=right;" vertex="1" parent="1">
          <mxGeometry x="780" y="500" width="100" height="100" as="geometry" />
        </mxCell>
        <mxCell id="J-XnqaCcBeAszSq59GeC-8" value="TC" style="verticalLabelPosition=middle;html=1;verticalAlign=middle;align=left;shape=mxgraph.floorplan.room;fillColor=strokeColor;labelPosition=right;" vertex="1" parent="1">
          <mxGeometry x="940" y="700" width="150" height="110" as="geometry" />
        </mxCell>
        <mxCell id="J-XnqaCcBeAszSq59GeC-9" value="" style="verticalLabelPosition=bottom;html=1;verticalAlign=top;align=center;shape=mxgraph.floorplan.plant;" vertex="1" parent="1">
          <mxGeometry x="130" y="630" width="47" height="51" as="geometry" />
        </mxCell>
        <mxCell id="J-XnqaCcBeAszSq59GeC-10" value="" style="verticalLabelPosition=bottom;html=1;verticalAlign=top;align=center;shape=mxgraph.floorplan.plant;" vertex="1" parent="1">
          <mxGeometry x="318" y="630" width="47" height="51" as="geometry" />
        </mxCell>
        <mxCell id="J-XnqaCcBeAszSq59GeC-11" value="" style="verticalLabelPosition=bottom;html=1;verticalAlign=top;align=center;shape=mxgraph.floorplan.plant;" vertex="1" parent="1">
          <mxGeometry x="600" y="615" width="47" height="51" as="geometry" />
        </mxCell>
        <mxCell id="J-XnqaCcBeAszSq59GeC-12" value="" style="verticalLabelPosition=bottom;html=1;verticalAlign=top;align=center;shape=mxgraph.floorplan.plant;" vertex="1" parent="1">
          <mxGeometry x="740" y="620" width="47" height="51" as="geometry" />
        </mxCell>
        <mxCell id="J-XnqaCcBeAszSq59GeC-13" value="" style="verticalLabelPosition=bottom;html=1;verticalAlign=top;align=center;shape=mxgraph.floorplan.wall;fillColor=strokeColor;direction=south;" vertex="1" parent="1">
          <mxGeometry x="480" y="80" width="10" height="510" as="geometry" />
        </mxCell>
        <mxCell id="J-XnqaCcBeAszSq59GeC-14" value="" style="verticalLabelPosition=bottom;html=1;verticalAlign=top;align=center;shape=mxgraph.floorplan.wall;fillColor=strokeColor;direction=south;" vertex="1" parent="1">
          <mxGeometry x="590" y="710" width="10" height="510" as="geometry" />
        </mxCell>
        <mxCell id="J-XnqaCcBeAszSq59GeC-15" value="" style="ellipse;whiteSpace=wrap;html=1;fillColor=#dae8fc;strokeColor=#6c8ebf;" vertex="1" parent="1">
          <mxGeometry x="975" y="740" width="41.5" height="10" as="geometry" />
        </mxCell>
        <mxCell id="J-XnqaCcBeAszSq59GeC-16" value="" style="ellipse;whiteSpace=wrap;html=1;fillColor=#dae8fc;strokeColor=#6c8ebf;" vertex="1" parent="1">
          <mxGeometry x="803.5" y="530" width="36.5" height="10" as="geometry" />
        </mxCell>
        <mxCell id="J-XnqaCcBeAszSq59GeC-20" value="" style="ellipse;whiteSpace=wrap;html=1;fillColor=#dae8fc;strokeColor=#6c8ebf;" vertex="1" parent="1">
          <mxGeometry x="980" y="100" width="36.5" height="10" as="geometry" />
        </mxCell>
        <mxCell id="J-XnqaCcBeAszSq59GeC-21" value="" style="endArrow=none;html=1;rounded=0;fillColor=#f8cecc;strokeColor=#b85450;" edge="1" parent="1">
          <mxGeometry width="50" height="50" relative="1" as="geometry">
            <mxPoint x="1000" y="740" as="sourcePoint" />
            <mxPoint x="1003" y="110" as="targetPoint" />
            <Array as="points">
              <mxPoint x="1000" y="730" />
            </Array>
          </mxGeometry>
        </mxCell>
        <mxCell id="J-XnqaCcBeAszSq59GeC-23" value="" style="endArrow=none;html=1;rounded=0;entryX=0.225;entryY=1.16;entryDx=0;entryDy=0;entryPerimeter=0;fillColor=#f8cecc;strokeColor=#b85450;" edge="1" parent="1" target="J-XnqaCcBeAszSq59GeC-20">
          <mxGeometry width="50" height="50" relative="1" as="geometry">
            <mxPoint x="990" y="480" as="sourcePoint" />
            <mxPoint x="990" y="120" as="targetPoint" />
          </mxGeometry>
        </mxCell>
        <mxCell id="J-XnqaCcBeAszSq59GeC-24" value="" style="endArrow=none;html=1;rounded=0;exitX=0.5;exitY=0;exitDx=0;exitDy=0;fillColor=#f8cecc;strokeColor=#b85450;" edge="1" parent="1" source="J-XnqaCcBeAszSq59GeC-16">
          <mxGeometry width="50" height="50" relative="1" as="geometry">
            <mxPoint x="943" y="530" as="sourcePoint" />
            <mxPoint x="990" y="480" as="targetPoint" />
          </mxGeometry>
        </mxCell>
        <mxCell id="J-XnqaCcBeAszSq59GeC-25" value="" style="whiteSpace=wrap;html=1;aspect=fixed;fillColor=#f8cecc;strokeColor=#b85450;" vertex="1" parent="1">
          <mxGeometry x="985.75" y="470" width="20" height="20" as="geometry" />
        </mxCell>
        <mxCell id="J-XnqaCcBeAszSq59GeC-27" value="" style="shape=process;whiteSpace=wrap;html=1;backgroundOutline=1;direction=south;" vertex="1" parent="1">
          <mxGeometry x="1110" y="90" width="40" height="100" as="geometry" />
        </mxCell>
        <mxCell id="J-XnqaCcBeAszSq59GeC-28" value="" style="ellipse;whiteSpace=wrap;html=1;fillColor=#dae8fc;strokeColor=#6c8ebf;" vertex="1" parent="1">
          <mxGeometry x="823.5" y="550" width="36.5" height="10" as="geometry" />
        </mxCell>
        <mxCell id="J-XnqaCcBeAszSq59GeC-29" value="" style="whiteSpace=wrap;html=1;aspect=fixed;fillColor=#f8cecc;strokeColor=#b85450;" vertex="1" parent="1">
          <mxGeometry x="1250" y="190" width="20" height="20" as="geometry" />
        </mxCell>
        <mxCell id="J-XnqaCcBeAszSq59GeC-30" value="" style="endArrow=none;html=1;rounded=0;entryX=0.5;entryY=1;entryDx=0;entryDy=0;" edge="1" parent="1" target="J-XnqaCcBeAszSq59GeC-27">
          <mxGeometry width="50" height="50" relative="1" as="geometry">
            <mxPoint x="1060" y="180" as="sourcePoint" />
            <mxPoint x="1110" y="130" as="targetPoint" />
          </mxGeometry>
        </mxCell>
        <mxCell id="J-XnqaCcBeAszSq59GeC-31" value="" style="endArrow=none;html=1;rounded=0;exitX=1.013;exitY=0.821;exitDx=0;exitDy=0;exitPerimeter=0;" edge="1" parent="1" source="J-XnqaCcBeAszSq59GeC-3">
          <mxGeometry width="50" height="50" relative="1" as="geometry">
            <mxPoint x="1200" y="250" as="sourcePoint" />
            <mxPoint x="1250" y="200" as="targetPoint" />
          </mxGeometry>
        </mxCell>
        <mxCell id="J-XnqaCcBeAszSq59GeC-32" value="" style="strokeColor=#b85450;html=1;labelPosition=right;align=left;spacingLeft=15;shadow=0;dashed=0;outlineConnect=0;shape=mxgraph.rackGeneral.horCableDuct;fillColor=#f8cecc;" vertex="1" parent="1">
          <mxGeometry x="80" y="80" width="790" height="20" as="geometry" />
        </mxCell>
        <mxCell id="J-XnqaCcBeAszSq59GeC-33" value="" style="strokeColor=#b85450;html=1;labelPosition=right;align=left;spacingLeft=15;shadow=0;dashed=0;outlineConnect=0;shape=mxgraph.rackGeneral.horCableDuct;fillColor=#f8cecc;" vertex="1" parent="1">
          <mxGeometry x="90" y="710" width="850" height="20" as="geometry" />
        </mxCell>
        <mxCell id="J-XnqaCcBeAszSq59GeC-34" value="RACK 1" style="shape=mxgraph.rack.hp.hp_proliant_sl250s_g8;html=1;labelPosition=right;align=left;spacingLeft=15;dashed=0;shadow=0;fillColor=#ffffff;" vertex="1" parent="1">
          <mxGeometry x="80" y="100" width="60" height="50" as="geometry" />
        </mxCell>
        <mxCell id="J-XnqaCcBeAszSq59GeC-35" value="RACK 2" style="shape=mxgraph.rack.hp.hp_proliant_sl250s_g8;html=1;labelPosition=right;align=left;spacingLeft=15;dashed=0;shadow=0;fillColor=#ffffff;" vertex="1" parent="1">
          <mxGeometry x="490" y="100" width="60" height="50" as="geometry" />
        </mxCell>
        <mxCell id="J-XnqaCcBeAszSq59GeC-37" value="RACK 3" style="shape=mxgraph.rack.hp.hp_proliant_sl250s_g8;html=1;labelPosition=right;align=left;spacingLeft=15;dashed=0;shadow=0;fillColor=#ffffff;" vertex="1" parent="1">
          <mxGeometry x="90" y="730" width="60" height="50" as="geometry" />
        </mxCell>
        <mxCell id="J-XnqaCcBeAszSq59GeC-38" value="RACK 4" style="shape=mxgraph.rack.hp.hp_proliant_sl250s_g8;html=1;labelPosition=right;align=left;spacingLeft=15;dashed=0;shadow=0;fillColor=#ffffff;" vertex="1" parent="1">
          <mxGeometry x="600" y="730" width="60" height="50" as="geometry" />
        </mxCell>
        <mxCell id="J-XnqaCcBeAszSq59GeC-41" style="edgeStyle=orthogonalEdgeStyle;rounded=0;orthogonalLoop=1;jettySize=auto;html=1;" edge="1" parent="1" source="J-XnqaCcBeAszSq59GeC-40" target="J-XnqaCcBeAszSq59GeC-1">
          <mxGeometry relative="1" as="geometry" />
        </mxCell>
        <mxCell id="J-XnqaCcBeAszSq59GeC-40" value="" style="strokeColor=#b85450;html=1;labelPosition=right;align=left;spacingLeft=15;shadow=0;dashed=0;outlineConnect=0;shape=mxgraph.rackGeneral.horCableDuct;fillColor=#f8cecc;direction=south;" vertex="1" parent="1">
          <mxGeometry x="850" y="100" width="20" height="400" as="geometry" />
        </mxCell>
        <mxCell id="J-XnqaCcBeAszSq59GeC-42" value="" style="verticalLabelPosition=bottom;html=1;verticalAlign=top;align=center;shape=mxgraph.floorplan.doorUneven;dx=0.5;" vertex="1" parent="1">
          <mxGeometry x="405" y="512.5" width="160" height="85" as="geometry" />
        </mxCell>
        <mxCell id="J-XnqaCcBeAszSq59GeC-43" value="" style="verticalLabelPosition=bottom;html=1;verticalAlign=top;align=center;shape=mxgraph.floorplan.doorUneven;dx=0.5;" vertex="1" parent="1">
          <mxGeometry x="515" y="1145" width="160" height="85" as="geometry" />
        </mxCell>
        <mxCell id="J-XnqaCcBeAszSq59GeC-46" value="" style="verticalLabelPosition=bottom;html=1;verticalAlign=top;align=center;shape=mxgraph.floorplan.doorLeft;aspect=fixed;direction=west;" vertex="1" parent="1">
          <mxGeometry x="1016.5" y="240" width="32.94" height="35" as="geometry" />
        </mxCell>
        <mxCell id="J-XnqaCcBeAszSq59GeC-60" value="" style="group" vertex="1" connectable="0" parent="1">
          <mxGeometry x="100" y="810" width="477" height="30" as="geometry" />
        </mxCell>
        <mxCell id="J-XnqaCcBeAszSq59GeC-52" value="" style="group" vertex="1" connectable="0" parent="J-XnqaCcBeAszSq59GeC-60">
          <mxGeometry width="130" height="30" as="geometry" />
        </mxCell>
        <mxCell id="J-XnqaCcBeAszSq59GeC-47" value="" style="sketch=0;pointerEvents=1;shadow=0;dashed=0;html=1;strokeColor=none;fillColor=#434445;aspect=fixed;labelPosition=center;verticalLabelPosition=bottom;verticalAlign=top;align=center;outlineConnect=0;shape=mxgraph.vvd.monitor;" vertex="1" parent="J-XnqaCcBeAszSq59GeC-52">
          <mxGeometry width="19.924098671726732" height="18.529411764705863" as="geometry" />
        </mxCell>
        <mxCell id="J-XnqaCcBeAszSq59GeC-48" value="" style="sketch=0;pointerEvents=1;shadow=0;dashed=0;html=1;strokeColor=none;fillColor=#434445;aspect=fixed;labelPosition=center;verticalLabelPosition=bottom;verticalAlign=top;align=center;outlineConnect=0;shape=mxgraph.vvd.monitor;" vertex="1" parent="J-XnqaCcBeAszSq59GeC-52">
          <mxGeometry x="26" width="19.924098671726732" height="18.529411764705863" as="geometry" />
        </mxCell>
        <mxCell id="J-XnqaCcBeAszSq59GeC-49" value="" style="sketch=0;pointerEvents=1;shadow=0;dashed=0;html=1;strokeColor=none;fillColor=#434445;aspect=fixed;labelPosition=center;verticalLabelPosition=bottom;verticalAlign=top;align=center;outlineConnect=0;shape=mxgraph.vvd.monitor;" vertex="1" parent="J-XnqaCcBeAszSq59GeC-52">
          <mxGeometry x="52" width="19.924098671726732" height="18.529411764705863" as="geometry" />
        </mxCell>
        <mxCell id="J-XnqaCcBeAszSq59GeC-50" value="" style="sketch=0;pointerEvents=1;shadow=0;dashed=0;html=1;strokeColor=none;fillColor=#434445;aspect=fixed;labelPosition=center;verticalLabelPosition=bottom;verticalAlign=top;align=center;outlineConnect=0;shape=mxgraph.vvd.monitor;" vertex="1" parent="J-XnqaCcBeAszSq59GeC-52">
          <mxGeometry x="78" width="19.924098671726732" height="18.529411764705863" as="geometry" />
        </mxCell>
        <mxCell id="J-XnqaCcBeAszSq59GeC-51" value="" style="sketch=0;pointerEvents=1;shadow=0;dashed=0;html=1;strokeColor=none;fillColor=#434445;aspect=fixed;labelPosition=center;verticalLabelPosition=bottom;verticalAlign=top;align=center;outlineConnect=0;shape=mxgraph.vvd.monitor;" vertex="1" parent="J-XnqaCcBeAszSq59GeC-52">
          <mxGeometry x="104" width="19.924098671726732" height="18.529411764705863" as="geometry" />
        </mxCell>
        <mxCell id="J-XnqaCcBeAszSq59GeC-622" value="Rack3.D01&#xa;Rack3.D02" style="group;labelPosition=center;verticalLabelPosition=top;align=center;verticalAlign=bottom;fontSize=6;fontStyle=1" vertex="1" connectable="0" parent="J-XnqaCcBeAszSq59GeC-52">
          <mxGeometry x="10" width="20" height="10" as="geometry" />
        </mxCell>
        <mxCell id="J-XnqaCcBeAszSq59GeC-618" value="" style="sketch=0;pointerEvents=1;shadow=0;dashed=0;html=1;strokeColor=#6c8ebf;fillColor=#dae8fc;aspect=fixed;labelPosition=center;verticalLabelPosition=bottom;verticalAlign=top;align=center;outlineConnect=0;shape=mxgraph.vvd.ethernet_port;" vertex="1" parent="J-XnqaCcBeAszSq59GeC-622">
          <mxGeometry x="10" width="10" height="10" as="geometry" />
        </mxCell>
        <mxCell id="J-XnqaCcBeAszSq59GeC-619" value="" style="sketch=0;pointerEvents=1;shadow=0;dashed=0;html=1;strokeColor=#6c8ebf;fillColor=#dae8fc;aspect=fixed;labelPosition=center;verticalLabelPosition=bottom;verticalAlign=top;align=center;outlineConnect=0;shape=mxgraph.vvd.ethernet_port;" vertex="1" parent="J-XnqaCcBeAszSq59GeC-622">
          <mxGeometry width="10" height="10" as="geometry" />
        </mxCell>
        <mxCell id="J-XnqaCcBeAszSq59GeC-624" value="Rack3.D03&#xa;Rack3.D04" style="group;labelPosition=center;verticalLabelPosition=top;align=center;verticalAlign=bottom;fontSize=6;fontStyle=1" vertex="1" connectable="0" parent="J-XnqaCcBeAszSq59GeC-52">
          <mxGeometry x="60" width="20" height="10" as="geometry" />
        </mxCell>
        <mxCell id="J-XnqaCcBeAszSq59GeC-625" value="" style="sketch=0;pointerEvents=1;shadow=0;dashed=0;html=1;strokeColor=#6c8ebf;fillColor=#dae8fc;aspect=fixed;labelPosition=center;verticalLabelPosition=bottom;verticalAlign=top;align=center;outlineConnect=0;shape=mxgraph.vvd.ethernet_port;" vertex="1" parent="J-XnqaCcBeAszSq59GeC-624">
          <mxGeometry x="10" width="10" height="10" as="geometry" />
        </mxCell>
        <mxCell id="J-XnqaCcBeAszSq59GeC-626" value="" style="sketch=0;pointerEvents=1;shadow=0;dashed=0;html=1;strokeColor=#6c8ebf;fillColor=#dae8fc;aspect=fixed;labelPosition=center;verticalLabelPosition=bottom;verticalAlign=top;align=center;outlineConnect=0;shape=mxgraph.vvd.ethernet_port;" vertex="1" parent="J-XnqaCcBeAszSq59GeC-624">
          <mxGeometry width="10" height="10" as="geometry" />
        </mxCell>
        <mxCell id="J-XnqaCcBeAszSq59GeC-53" value="" style="group" vertex="1" connectable="0" parent="J-XnqaCcBeAszSq59GeC-60">
          <mxGeometry x="353" y="5" width="124" height="20" as="geometry" />
        </mxCell>
        <mxCell id="J-XnqaCcBeAszSq59GeC-55" value="" style="sketch=0;pointerEvents=1;shadow=0;dashed=0;html=1;strokeColor=none;fillColor=#434445;aspect=fixed;labelPosition=center;verticalLabelPosition=bottom;verticalAlign=top;align=center;outlineConnect=0;shape=mxgraph.vvd.monitor;" vertex="1" parent="J-XnqaCcBeAszSq59GeC-53">
          <mxGeometry x="24.8" width="19.900497512437788" height="18.507462686567145" as="geometry" />
        </mxCell>
        <mxCell id="J-XnqaCcBeAszSq59GeC-56" value="" style="sketch=0;pointerEvents=1;shadow=0;dashed=0;html=1;strokeColor=none;fillColor=#434445;aspect=fixed;labelPosition=center;verticalLabelPosition=bottom;verticalAlign=top;align=center;outlineConnect=0;shape=mxgraph.vvd.monitor;" vertex="1" parent="J-XnqaCcBeAszSq59GeC-53">
          <mxGeometry x="49.6" width="19.900497512437788" height="18.507462686567145" as="geometry" />
        </mxCell>
        <mxCell id="J-XnqaCcBeAszSq59GeC-57" value="" style="sketch=0;pointerEvents=1;shadow=0;dashed=0;html=1;strokeColor=none;fillColor=#434445;aspect=fixed;labelPosition=center;verticalLabelPosition=bottom;verticalAlign=top;align=center;outlineConnect=0;shape=mxgraph.vvd.monitor;" vertex="1" parent="J-XnqaCcBeAszSq59GeC-53">
          <mxGeometry x="74.39999999999999" width="19.900497512437788" height="18.507462686567145" as="geometry" />
        </mxCell>
        <mxCell id="J-XnqaCcBeAszSq59GeC-58" value="" style="sketch=0;pointerEvents=1;shadow=0;dashed=0;html=1;strokeColor=none;fillColor=#434445;aspect=fixed;labelPosition=center;verticalLabelPosition=bottom;verticalAlign=top;align=center;outlineConnect=0;shape=mxgraph.vvd.monitor;" vertex="1" parent="J-XnqaCcBeAszSq59GeC-53">
          <mxGeometry x="99.2" width="19.900497512437788" height="18.507462686567145" as="geometry" />
        </mxCell>
        <mxCell id="J-XnqaCcBeAszSq59GeC-54" value="" style="sketch=0;pointerEvents=1;shadow=0;dashed=0;html=1;strokeColor=none;fillColor=#434445;aspect=fixed;labelPosition=center;verticalLabelPosition=bottom;verticalAlign=top;align=center;outlineConnect=0;shape=mxgraph.vvd.monitor;" vertex="1" parent="J-XnqaCcBeAszSq59GeC-60">
          <mxGeometry x="130" width="19.900497512437788" height="18.507462686567145" as="geometry" />
        </mxCell>
        <mxCell id="J-XnqaCcBeAszSq59GeC-73" value="" style="group" vertex="1" connectable="0" parent="1">
          <mxGeometry x="100" y="850" width="477" height="30" as="geometry" />
        </mxCell>
        <mxCell id="J-XnqaCcBeAszSq59GeC-74" value="" style="group" vertex="1" connectable="0" parent="J-XnqaCcBeAszSq59GeC-73">
          <mxGeometry width="130" height="30" as="geometry" />
        </mxCell>
        <mxCell id="J-XnqaCcBeAszSq59GeC-75" value="" style="sketch=0;pointerEvents=1;shadow=0;dashed=0;html=1;strokeColor=none;fillColor=#434445;aspect=fixed;labelPosition=center;verticalLabelPosition=bottom;verticalAlign=top;align=center;outlineConnect=0;shape=mxgraph.vvd.monitor;" vertex="1" parent="J-XnqaCcBeAszSq59GeC-74">
          <mxGeometry width="19.924098671726732" height="18.529411764705863" as="geometry" />
        </mxCell>
        <mxCell id="J-XnqaCcBeAszSq59GeC-76" value="" style="sketch=0;pointerEvents=1;shadow=0;dashed=0;html=1;strokeColor=none;fillColor=#434445;aspect=fixed;labelPosition=center;verticalLabelPosition=bottom;verticalAlign=top;align=center;outlineConnect=0;shape=mxgraph.vvd.monitor;" vertex="1" parent="J-XnqaCcBeAszSq59GeC-74">
          <mxGeometry x="26" width="19.924098671726732" height="18.529411764705863" as="geometry" />
        </mxCell>
        <mxCell id="J-XnqaCcBeAszSq59GeC-77" value="" style="sketch=0;pointerEvents=1;shadow=0;dashed=0;html=1;strokeColor=none;fillColor=#434445;aspect=fixed;labelPosition=center;verticalLabelPosition=bottom;verticalAlign=top;align=center;outlineConnect=0;shape=mxgraph.vvd.monitor;" vertex="1" parent="J-XnqaCcBeAszSq59GeC-74">
          <mxGeometry x="52" width="19.924098671726732" height="18.529411764705863" as="geometry" />
        </mxCell>
        <mxCell id="J-XnqaCcBeAszSq59GeC-78" value="" style="sketch=0;pointerEvents=1;shadow=0;dashed=0;html=1;strokeColor=none;fillColor=#434445;aspect=fixed;labelPosition=center;verticalLabelPosition=bottom;verticalAlign=top;align=center;outlineConnect=0;shape=mxgraph.vvd.monitor;" vertex="1" parent="J-XnqaCcBeAszSq59GeC-74">
          <mxGeometry x="78" width="19.924098671726732" height="18.529411764705863" as="geometry" />
        </mxCell>
        <mxCell id="J-XnqaCcBeAszSq59GeC-79" value="" style="sketch=0;pointerEvents=1;shadow=0;dashed=0;html=1;strokeColor=none;fillColor=#434445;aspect=fixed;labelPosition=center;verticalLabelPosition=bottom;verticalAlign=top;align=center;outlineConnect=0;shape=mxgraph.vvd.monitor;" vertex="1" parent="J-XnqaCcBeAszSq59GeC-74">
          <mxGeometry x="104" width="19.924098671726732" height="18.529411764705863" as="geometry" />
        </mxCell>
        <mxCell id="J-XnqaCcBeAszSq59GeC-80" value="" style="group" vertex="1" connectable="0" parent="J-XnqaCcBeAszSq59GeC-73">
          <mxGeometry x="353" y="5" width="124" height="20" as="geometry" />
        </mxCell>
        <mxCell id="J-XnqaCcBeAszSq59GeC-82" value="" style="sketch=0;pointerEvents=1;shadow=0;dashed=0;html=1;strokeColor=none;fillColor=#434445;aspect=fixed;labelPosition=center;verticalLabelPosition=bottom;verticalAlign=top;align=center;outlineConnect=0;shape=mxgraph.vvd.monitor;" vertex="1" parent="J-XnqaCcBeAszSq59GeC-80">
          <mxGeometry x="24.8" width="19.900497512437788" height="18.507462686567145" as="geometry" />
        </mxCell>
        <mxCell id="J-XnqaCcBeAszSq59GeC-83" value="" style="sketch=0;pointerEvents=1;shadow=0;dashed=0;html=1;strokeColor=none;fillColor=#434445;aspect=fixed;labelPosition=center;verticalLabelPosition=bottom;verticalAlign=top;align=center;outlineConnect=0;shape=mxgraph.vvd.monitor;" vertex="1" parent="J-XnqaCcBeAszSq59GeC-80">
          <mxGeometry x="49.6" width="19.900497512437788" height="18.507462686567145" as="geometry" />
        </mxCell>
        <mxCell id="J-XnqaCcBeAszSq59GeC-84" value="" style="sketch=0;pointerEvents=1;shadow=0;dashed=0;html=1;strokeColor=none;fillColor=#434445;aspect=fixed;labelPosition=center;verticalLabelPosition=bottom;verticalAlign=top;align=center;outlineConnect=0;shape=mxgraph.vvd.monitor;" vertex="1" parent="J-XnqaCcBeAszSq59GeC-80">
          <mxGeometry x="74.39999999999999" width="19.900497512437788" height="18.507462686567145" as="geometry" />
        </mxCell>
        <mxCell id="J-XnqaCcBeAszSq59GeC-85" value="" style="sketch=0;pointerEvents=1;shadow=0;dashed=0;html=1;strokeColor=none;fillColor=#434445;aspect=fixed;labelPosition=center;verticalLabelPosition=bottom;verticalAlign=top;align=center;outlineConnect=0;shape=mxgraph.vvd.monitor;" vertex="1" parent="J-XnqaCcBeAszSq59GeC-80">
          <mxGeometry x="99.2" width="19.900497512437788" height="18.507462686567145" as="geometry" />
        </mxCell>
        <mxCell id="J-XnqaCcBeAszSq59GeC-81" value="" style="sketch=0;pointerEvents=1;shadow=0;dashed=0;html=1;strokeColor=none;fillColor=#434445;aspect=fixed;labelPosition=center;verticalLabelPosition=bottom;verticalAlign=top;align=center;outlineConnect=0;shape=mxgraph.vvd.monitor;" vertex="1" parent="J-XnqaCcBeAszSq59GeC-73">
          <mxGeometry x="130" width="19.900497512437788" height="18.507462686567145" as="geometry" />
        </mxCell>
        <mxCell id="J-XnqaCcBeAszSq59GeC-86" value="" style="group" vertex="1" connectable="0" parent="1">
          <mxGeometry x="100" y="900" width="477" height="30" as="geometry" />
        </mxCell>
        <mxCell id="J-XnqaCcBeAszSq59GeC-87" value="" style="group" vertex="1" connectable="0" parent="J-XnqaCcBeAszSq59GeC-86">
          <mxGeometry width="130" height="30" as="geometry" />
        </mxCell>
        <mxCell id="J-XnqaCcBeAszSq59GeC-88" value="" style="sketch=0;pointerEvents=1;shadow=0;dashed=0;html=1;strokeColor=none;fillColor=#434445;aspect=fixed;labelPosition=center;verticalLabelPosition=bottom;verticalAlign=top;align=center;outlineConnect=0;shape=mxgraph.vvd.monitor;" vertex="1" parent="J-XnqaCcBeAszSq59GeC-87">
          <mxGeometry width="19.924098671726732" height="18.529411764705863" as="geometry" />
        </mxCell>
        <mxCell id="J-XnqaCcBeAszSq59GeC-89" value="" style="sketch=0;pointerEvents=1;shadow=0;dashed=0;html=1;strokeColor=none;fillColor=#434445;aspect=fixed;labelPosition=center;verticalLabelPosition=bottom;verticalAlign=top;align=center;outlineConnect=0;shape=mxgraph.vvd.monitor;" vertex="1" parent="J-XnqaCcBeAszSq59GeC-87">
          <mxGeometry x="26" width="19.924098671726732" height="18.529411764705863" as="geometry" />
        </mxCell>
        <mxCell id="J-XnqaCcBeAszSq59GeC-90" value="" style="sketch=0;pointerEvents=1;shadow=0;dashed=0;html=1;strokeColor=none;fillColor=#434445;aspect=fixed;labelPosition=center;verticalLabelPosition=bottom;verticalAlign=top;align=center;outlineConnect=0;shape=mxgraph.vvd.monitor;" vertex="1" parent="J-XnqaCcBeAszSq59GeC-87">
          <mxGeometry x="52" width="19.924098671726732" height="18.529411764705863" as="geometry" />
        </mxCell>
        <mxCell id="J-XnqaCcBeAszSq59GeC-91" value="" style="sketch=0;pointerEvents=1;shadow=0;dashed=0;html=1;strokeColor=none;fillColor=#434445;aspect=fixed;labelPosition=center;verticalLabelPosition=bottom;verticalAlign=top;align=center;outlineConnect=0;shape=mxgraph.vvd.monitor;" vertex="1" parent="J-XnqaCcBeAszSq59GeC-87">
          <mxGeometry x="78" width="19.924098671726732" height="18.529411764705863" as="geometry" />
        </mxCell>
        <mxCell id="J-XnqaCcBeAszSq59GeC-92" value="" style="sketch=0;pointerEvents=1;shadow=0;dashed=0;html=1;strokeColor=none;fillColor=#434445;aspect=fixed;labelPosition=center;verticalLabelPosition=bottom;verticalAlign=top;align=center;outlineConnect=0;shape=mxgraph.vvd.monitor;" vertex="1" parent="J-XnqaCcBeAszSq59GeC-87">
          <mxGeometry x="104" width="19.924098671726732" height="18.529411764705863" as="geometry" />
        </mxCell>
        <mxCell id="J-XnqaCcBeAszSq59GeC-93" value="" style="group" vertex="1" connectable="0" parent="J-XnqaCcBeAszSq59GeC-86">
          <mxGeometry x="353" y="5" width="124" height="20" as="geometry" />
        </mxCell>
        <mxCell id="J-XnqaCcBeAszSq59GeC-95" value="" style="sketch=0;pointerEvents=1;shadow=0;dashed=0;html=1;strokeColor=none;fillColor=#434445;aspect=fixed;labelPosition=center;verticalLabelPosition=bottom;verticalAlign=top;align=center;outlineConnect=0;shape=mxgraph.vvd.monitor;" vertex="1" parent="J-XnqaCcBeAszSq59GeC-93">
          <mxGeometry x="24.8" width="19.900497512437788" height="18.507462686567145" as="geometry" />
        </mxCell>
        <mxCell id="J-XnqaCcBeAszSq59GeC-96" value="" style="sketch=0;pointerEvents=1;shadow=0;dashed=0;html=1;strokeColor=none;fillColor=#434445;aspect=fixed;labelPosition=center;verticalLabelPosition=bottom;verticalAlign=top;align=center;outlineConnect=0;shape=mxgraph.vvd.monitor;" vertex="1" parent="J-XnqaCcBeAszSq59GeC-93">
          <mxGeometry x="49.6" width="19.900497512437788" height="18.507462686567145" as="geometry" />
        </mxCell>
        <mxCell id="J-XnqaCcBeAszSq59GeC-97" value="" style="sketch=0;pointerEvents=1;shadow=0;dashed=0;html=1;strokeColor=none;fillColor=#434445;aspect=fixed;labelPosition=center;verticalLabelPosition=bottom;verticalAlign=top;align=center;outlineConnect=0;shape=mxgraph.vvd.monitor;" vertex="1" parent="J-XnqaCcBeAszSq59GeC-93">
          <mxGeometry x="74.39999999999999" width="19.900497512437788" height="18.507462686567145" as="geometry" />
        </mxCell>
        <mxCell id="J-XnqaCcBeAszSq59GeC-98" value="" style="sketch=0;pointerEvents=1;shadow=0;dashed=0;html=1;strokeColor=none;fillColor=#434445;aspect=fixed;labelPosition=center;verticalLabelPosition=bottom;verticalAlign=top;align=center;outlineConnect=0;shape=mxgraph.vvd.monitor;" vertex="1" parent="J-XnqaCcBeAszSq59GeC-93">
          <mxGeometry x="99.2" width="19.900497512437788" height="18.507462686567145" as="geometry" />
        </mxCell>
        <mxCell id="J-XnqaCcBeAszSq59GeC-94" value="" style="sketch=0;pointerEvents=1;shadow=0;dashed=0;html=1;strokeColor=none;fillColor=#434445;aspect=fixed;labelPosition=center;verticalLabelPosition=bottom;verticalAlign=top;align=center;outlineConnect=0;shape=mxgraph.vvd.monitor;" vertex="1" parent="J-XnqaCcBeAszSq59GeC-86">
          <mxGeometry x="130" width="19.900497512437788" height="18.507462686567145" as="geometry" />
        </mxCell>
        <mxCell id="J-XnqaCcBeAszSq59GeC-99" value="" style="group" vertex="1" connectable="0" parent="1">
          <mxGeometry x="100" y="940" width="477" height="30" as="geometry" />
        </mxCell>
        <mxCell id="J-XnqaCcBeAszSq59GeC-100" value="" style="group" vertex="1" connectable="0" parent="J-XnqaCcBeAszSq59GeC-99">
          <mxGeometry width="130" height="30" as="geometry" />
        </mxCell>
        <mxCell id="J-XnqaCcBeAszSq59GeC-101" value="" style="sketch=0;pointerEvents=1;shadow=0;dashed=0;html=1;strokeColor=none;fillColor=#434445;aspect=fixed;labelPosition=center;verticalLabelPosition=bottom;verticalAlign=top;align=center;outlineConnect=0;shape=mxgraph.vvd.monitor;" vertex="1" parent="J-XnqaCcBeAszSq59GeC-100">
          <mxGeometry width="19.924098671726732" height="18.529411764705863" as="geometry" />
        </mxCell>
        <mxCell id="J-XnqaCcBeAszSq59GeC-102" value="" style="sketch=0;pointerEvents=1;shadow=0;dashed=0;html=1;strokeColor=none;fillColor=#434445;aspect=fixed;labelPosition=center;verticalLabelPosition=bottom;verticalAlign=top;align=center;outlineConnect=0;shape=mxgraph.vvd.monitor;" vertex="1" parent="J-XnqaCcBeAszSq59GeC-100">
          <mxGeometry x="26" width="19.924098671726732" height="18.529411764705863" as="geometry" />
        </mxCell>
        <mxCell id="J-XnqaCcBeAszSq59GeC-103" value="" style="sketch=0;pointerEvents=1;shadow=0;dashed=0;html=1;strokeColor=none;fillColor=#434445;aspect=fixed;labelPosition=center;verticalLabelPosition=bottom;verticalAlign=top;align=center;outlineConnect=0;shape=mxgraph.vvd.monitor;" vertex="1" parent="J-XnqaCcBeAszSq59GeC-100">
          <mxGeometry x="52" width="19.924098671726732" height="18.529411764705863" as="geometry" />
        </mxCell>
        <mxCell id="J-XnqaCcBeAszSq59GeC-104" value="" style="sketch=0;pointerEvents=1;shadow=0;dashed=0;html=1;strokeColor=none;fillColor=#434445;aspect=fixed;labelPosition=center;verticalLabelPosition=bottom;verticalAlign=top;align=center;outlineConnect=0;shape=mxgraph.vvd.monitor;" vertex="1" parent="J-XnqaCcBeAszSq59GeC-100">
          <mxGeometry x="78" width="19.924098671726732" height="18.529411764705863" as="geometry" />
        </mxCell>
        <mxCell id="J-XnqaCcBeAszSq59GeC-105" value="" style="sketch=0;pointerEvents=1;shadow=0;dashed=0;html=1;strokeColor=none;fillColor=#434445;aspect=fixed;labelPosition=center;verticalLabelPosition=bottom;verticalAlign=top;align=center;outlineConnect=0;shape=mxgraph.vvd.monitor;" vertex="1" parent="J-XnqaCcBeAszSq59GeC-100">
          <mxGeometry x="104" width="19.924098671726732" height="18.529411764705863" as="geometry" />
        </mxCell>
        <mxCell id="J-XnqaCcBeAszSq59GeC-106" value="" style="group" vertex="1" connectable="0" parent="J-XnqaCcBeAszSq59GeC-99">
          <mxGeometry x="353" y="5" width="124" height="20" as="geometry" />
        </mxCell>
        <mxCell id="J-XnqaCcBeAszSq59GeC-108" value="" style="sketch=0;pointerEvents=1;shadow=0;dashed=0;html=1;strokeColor=none;fillColor=#434445;aspect=fixed;labelPosition=center;verticalLabelPosition=bottom;verticalAlign=top;align=center;outlineConnect=0;shape=mxgraph.vvd.monitor;" vertex="1" parent="J-XnqaCcBeAszSq59GeC-106">
          <mxGeometry x="24.8" width="19.900497512437788" height="18.507462686567145" as="geometry" />
        </mxCell>
        <mxCell id="J-XnqaCcBeAszSq59GeC-109" value="" style="sketch=0;pointerEvents=1;shadow=0;dashed=0;html=1;strokeColor=none;fillColor=#434445;aspect=fixed;labelPosition=center;verticalLabelPosition=bottom;verticalAlign=top;align=center;outlineConnect=0;shape=mxgraph.vvd.monitor;" vertex="1" parent="J-XnqaCcBeAszSq59GeC-106">
          <mxGeometry x="49.6" width="19.900497512437788" height="18.507462686567145" as="geometry" />
        </mxCell>
        <mxCell id="J-XnqaCcBeAszSq59GeC-110" value="" style="sketch=0;pointerEvents=1;shadow=0;dashed=0;html=1;strokeColor=none;fillColor=#434445;aspect=fixed;labelPosition=center;verticalLabelPosition=bottom;verticalAlign=top;align=center;outlineConnect=0;shape=mxgraph.vvd.monitor;" vertex="1" parent="J-XnqaCcBeAszSq59GeC-106">
          <mxGeometry x="74.39999999999999" width="19.900497512437788" height="18.507462686567145" as="geometry" />
        </mxCell>
        <mxCell id="J-XnqaCcBeAszSq59GeC-111" value="" style="sketch=0;pointerEvents=1;shadow=0;dashed=0;html=1;strokeColor=none;fillColor=#434445;aspect=fixed;labelPosition=center;verticalLabelPosition=bottom;verticalAlign=top;align=center;outlineConnect=0;shape=mxgraph.vvd.monitor;" vertex="1" parent="J-XnqaCcBeAszSq59GeC-106">
          <mxGeometry x="99.2" width="19.900497512437788" height="18.507462686567145" as="geometry" />
        </mxCell>
        <mxCell id="J-XnqaCcBeAszSq59GeC-107" value="" style="sketch=0;pointerEvents=1;shadow=0;dashed=0;html=1;strokeColor=none;fillColor=#434445;aspect=fixed;labelPosition=center;verticalLabelPosition=bottom;verticalAlign=top;align=center;outlineConnect=0;shape=mxgraph.vvd.monitor;" vertex="1" parent="J-XnqaCcBeAszSq59GeC-99">
          <mxGeometry x="130" width="19.900497512437788" height="18.507462686567145" as="geometry" />
        </mxCell>
        <mxCell id="J-XnqaCcBeAszSq59GeC-644" value="RACK3-AP001" style="sketch=0;pointerEvents=1;shadow=0;dashed=0;html=1;strokeColor=#d6b656;fillColor=#fff2cc;aspect=fixed;labelPosition=center;verticalLabelPosition=bottom;verticalAlign=top;align=center;outlineConnect=0;shape=mxgraph.vvd.wi_fi;fontSize=6;" vertex="1" parent="J-XnqaCcBeAszSq59GeC-99">
          <mxGeometry x="240" y="5" width="40" height="40" as="geometry" />
        </mxCell>
        <mxCell id="J-XnqaCcBeAszSq59GeC-654" value="&lt;font color=&quot;#000000&quot;&gt;RACK4-IMP003&lt;/font&gt;" style="sketch=0;pointerEvents=1;shadow=0;dashed=0;html=1;strokeColor=#b85450;fillColor=#f8cecc;aspect=fixed;labelPosition=center;verticalLabelPosition=bottom;verticalAlign=top;align=center;outlineConnect=0;shape=mxgraph.vvd.ethernet_port;fontSize=6;" vertex="1" parent="J-XnqaCcBeAszSq59GeC-99">
          <mxGeometry x="280" y="10" width="20" height="20" as="geometry" />
        </mxCell>
        <mxCell id="J-XnqaCcBeAszSq59GeC-112" value="" style="group" vertex="1" connectable="0" parent="1">
          <mxGeometry x="100" y="990" width="477" height="30" as="geometry" />
        </mxCell>
        <mxCell id="J-XnqaCcBeAszSq59GeC-113" value="" style="group" vertex="1" connectable="0" parent="J-XnqaCcBeAszSq59GeC-112">
          <mxGeometry width="130" height="30" as="geometry" />
        </mxCell>
        <mxCell id="J-XnqaCcBeAszSq59GeC-114" value="" style="sketch=0;pointerEvents=1;shadow=0;dashed=0;html=1;strokeColor=none;fillColor=#434445;aspect=fixed;labelPosition=center;verticalLabelPosition=bottom;verticalAlign=top;align=center;outlineConnect=0;shape=mxgraph.vvd.monitor;" vertex="1" parent="J-XnqaCcBeAszSq59GeC-113">
          <mxGeometry width="19.924098671726732" height="18.529411764705863" as="geometry" />
        </mxCell>
        <mxCell id="J-XnqaCcBeAszSq59GeC-115" value="" style="sketch=0;pointerEvents=1;shadow=0;dashed=0;html=1;strokeColor=none;fillColor=#434445;aspect=fixed;labelPosition=center;verticalLabelPosition=bottom;verticalAlign=top;align=center;outlineConnect=0;shape=mxgraph.vvd.monitor;" vertex="1" parent="J-XnqaCcBeAszSq59GeC-113">
          <mxGeometry x="26" width="19.924098671726732" height="18.529411764705863" as="geometry" />
        </mxCell>
        <mxCell id="J-XnqaCcBeAszSq59GeC-116" value="" style="sketch=0;pointerEvents=1;shadow=0;dashed=0;html=1;strokeColor=none;fillColor=#434445;aspect=fixed;labelPosition=center;verticalLabelPosition=bottom;verticalAlign=top;align=center;outlineConnect=0;shape=mxgraph.vvd.monitor;" vertex="1" parent="J-XnqaCcBeAszSq59GeC-113">
          <mxGeometry x="52" width="19.924098671726732" height="18.529411764705863" as="geometry" />
        </mxCell>
        <mxCell id="J-XnqaCcBeAszSq59GeC-117" value="" style="sketch=0;pointerEvents=1;shadow=0;dashed=0;html=1;strokeColor=none;fillColor=#434445;aspect=fixed;labelPosition=center;verticalLabelPosition=bottom;verticalAlign=top;align=center;outlineConnect=0;shape=mxgraph.vvd.monitor;" vertex="1" parent="J-XnqaCcBeAszSq59GeC-113">
          <mxGeometry x="78" width="19.924098671726732" height="18.529411764705863" as="geometry" />
        </mxCell>
        <mxCell id="J-XnqaCcBeAszSq59GeC-118" value="" style="sketch=0;pointerEvents=1;shadow=0;dashed=0;html=1;strokeColor=none;fillColor=#434445;aspect=fixed;labelPosition=center;verticalLabelPosition=bottom;verticalAlign=top;align=center;outlineConnect=0;shape=mxgraph.vvd.monitor;" vertex="1" parent="J-XnqaCcBeAszSq59GeC-113">
          <mxGeometry x="104" width="19.924098671726732" height="18.529411764705863" as="geometry" />
        </mxCell>
        <mxCell id="J-XnqaCcBeAszSq59GeC-119" value="" style="group" vertex="1" connectable="0" parent="J-XnqaCcBeAszSq59GeC-112">
          <mxGeometry x="353" y="5" width="124" height="20" as="geometry" />
        </mxCell>
        <mxCell id="J-XnqaCcBeAszSq59GeC-121" value="" style="sketch=0;pointerEvents=1;shadow=0;dashed=0;html=1;strokeColor=none;fillColor=#434445;aspect=fixed;labelPosition=center;verticalLabelPosition=bottom;verticalAlign=top;align=center;outlineConnect=0;shape=mxgraph.vvd.monitor;" vertex="1" parent="J-XnqaCcBeAszSq59GeC-119">
          <mxGeometry x="24.8" width="19.900497512437788" height="18.507462686567145" as="geometry" />
        </mxCell>
        <mxCell id="J-XnqaCcBeAszSq59GeC-122" value="" style="sketch=0;pointerEvents=1;shadow=0;dashed=0;html=1;strokeColor=none;fillColor=#434445;aspect=fixed;labelPosition=center;verticalLabelPosition=bottom;verticalAlign=top;align=center;outlineConnect=0;shape=mxgraph.vvd.monitor;" vertex="1" parent="J-XnqaCcBeAszSq59GeC-119">
          <mxGeometry x="49.6" width="19.900497512437788" height="18.507462686567145" as="geometry" />
        </mxCell>
        <mxCell id="J-XnqaCcBeAszSq59GeC-123" value="" style="sketch=0;pointerEvents=1;shadow=0;dashed=0;html=1;strokeColor=none;fillColor=#434445;aspect=fixed;labelPosition=center;verticalLabelPosition=bottom;verticalAlign=top;align=center;outlineConnect=0;shape=mxgraph.vvd.monitor;" vertex="1" parent="J-XnqaCcBeAszSq59GeC-119">
          <mxGeometry x="74.39999999999999" width="19.900497512437788" height="18.507462686567145" as="geometry" />
        </mxCell>
        <mxCell id="J-XnqaCcBeAszSq59GeC-124" value="" style="sketch=0;pointerEvents=1;shadow=0;dashed=0;html=1;strokeColor=none;fillColor=#434445;aspect=fixed;labelPosition=center;verticalLabelPosition=bottom;verticalAlign=top;align=center;outlineConnect=0;shape=mxgraph.vvd.monitor;" vertex="1" parent="J-XnqaCcBeAszSq59GeC-119">
          <mxGeometry x="99.2" width="19.900497512437788" height="18.507462686567145" as="geometry" />
        </mxCell>
        <mxCell id="J-XnqaCcBeAszSq59GeC-120" value="" style="sketch=0;pointerEvents=1;shadow=0;dashed=0;html=1;strokeColor=none;fillColor=#434445;aspect=fixed;labelPosition=center;verticalLabelPosition=bottom;verticalAlign=top;align=center;outlineConnect=0;shape=mxgraph.vvd.monitor;" vertex="1" parent="J-XnqaCcBeAszSq59GeC-112">
          <mxGeometry x="130" width="19.900497512437788" height="18.507462686567145" as="geometry" />
        </mxCell>
        <mxCell id="J-XnqaCcBeAszSq59GeC-125" value="" style="group" vertex="1" connectable="0" parent="1">
          <mxGeometry x="100" y="1040" width="477" height="30" as="geometry" />
        </mxCell>
        <mxCell id="J-XnqaCcBeAszSq59GeC-126" value="" style="group" vertex="1" connectable="0" parent="J-XnqaCcBeAszSq59GeC-125">
          <mxGeometry width="130" height="30" as="geometry" />
        </mxCell>
        <mxCell id="J-XnqaCcBeAszSq59GeC-127" value="" style="sketch=0;pointerEvents=1;shadow=0;dashed=0;html=1;strokeColor=none;fillColor=#434445;aspect=fixed;labelPosition=center;verticalLabelPosition=bottom;verticalAlign=top;align=center;outlineConnect=0;shape=mxgraph.vvd.monitor;" vertex="1" parent="J-XnqaCcBeAszSq59GeC-126">
          <mxGeometry width="19.924098671726732" height="18.529411764705863" as="geometry" />
        </mxCell>
        <mxCell id="J-XnqaCcBeAszSq59GeC-128" value="" style="sketch=0;pointerEvents=1;shadow=0;dashed=0;html=1;strokeColor=none;fillColor=#434445;aspect=fixed;labelPosition=center;verticalLabelPosition=bottom;verticalAlign=top;align=center;outlineConnect=0;shape=mxgraph.vvd.monitor;" vertex="1" parent="J-XnqaCcBeAszSq59GeC-126">
          <mxGeometry x="26" width="19.924098671726732" height="18.529411764705863" as="geometry" />
        </mxCell>
        <mxCell id="J-XnqaCcBeAszSq59GeC-129" value="" style="sketch=0;pointerEvents=1;shadow=0;dashed=0;html=1;strokeColor=none;fillColor=#434445;aspect=fixed;labelPosition=center;verticalLabelPosition=bottom;verticalAlign=top;align=center;outlineConnect=0;shape=mxgraph.vvd.monitor;" vertex="1" parent="J-XnqaCcBeAszSq59GeC-126">
          <mxGeometry x="52" width="19.924098671726732" height="18.529411764705863" as="geometry" />
        </mxCell>
        <mxCell id="J-XnqaCcBeAszSq59GeC-130" value="" style="sketch=0;pointerEvents=1;shadow=0;dashed=0;html=1;strokeColor=none;fillColor=#434445;aspect=fixed;labelPosition=center;verticalLabelPosition=bottom;verticalAlign=top;align=center;outlineConnect=0;shape=mxgraph.vvd.monitor;" vertex="1" parent="J-XnqaCcBeAszSq59GeC-126">
          <mxGeometry x="78" width="19.924098671726732" height="18.529411764705863" as="geometry" />
        </mxCell>
        <mxCell id="J-XnqaCcBeAszSq59GeC-131" value="" style="sketch=0;pointerEvents=1;shadow=0;dashed=0;html=1;strokeColor=none;fillColor=#434445;aspect=fixed;labelPosition=center;verticalLabelPosition=bottom;verticalAlign=top;align=center;outlineConnect=0;shape=mxgraph.vvd.monitor;" vertex="1" parent="J-XnqaCcBeAszSq59GeC-126">
          <mxGeometry x="104" width="19.924098671726732" height="18.529411764705863" as="geometry" />
        </mxCell>
        <mxCell id="J-XnqaCcBeAszSq59GeC-132" value="" style="group" vertex="1" connectable="0" parent="J-XnqaCcBeAszSq59GeC-125">
          <mxGeometry x="353" y="5" width="124" height="20" as="geometry" />
        </mxCell>
        <mxCell id="J-XnqaCcBeAszSq59GeC-134" value="" style="sketch=0;pointerEvents=1;shadow=0;dashed=0;html=1;strokeColor=none;fillColor=#434445;aspect=fixed;labelPosition=center;verticalLabelPosition=bottom;verticalAlign=top;align=center;outlineConnect=0;shape=mxgraph.vvd.monitor;" vertex="1" parent="J-XnqaCcBeAszSq59GeC-132">
          <mxGeometry x="24.8" width="19.900497512437788" height="18.507462686567145" as="geometry" />
        </mxCell>
        <mxCell id="J-XnqaCcBeAszSq59GeC-135" value="" style="sketch=0;pointerEvents=1;shadow=0;dashed=0;html=1;strokeColor=none;fillColor=#434445;aspect=fixed;labelPosition=center;verticalLabelPosition=bottom;verticalAlign=top;align=center;outlineConnect=0;shape=mxgraph.vvd.monitor;" vertex="1" parent="J-XnqaCcBeAszSq59GeC-132">
          <mxGeometry x="49.6" width="19.900497512437788" height="18.507462686567145" as="geometry" />
        </mxCell>
        <mxCell id="J-XnqaCcBeAszSq59GeC-136" value="" style="sketch=0;pointerEvents=1;shadow=0;dashed=0;html=1;strokeColor=none;fillColor=#434445;aspect=fixed;labelPosition=center;verticalLabelPosition=bottom;verticalAlign=top;align=center;outlineConnect=0;shape=mxgraph.vvd.monitor;" vertex="1" parent="J-XnqaCcBeAszSq59GeC-132">
          <mxGeometry x="74.39999999999999" width="19.900497512437788" height="18.507462686567145" as="geometry" />
        </mxCell>
        <mxCell id="J-XnqaCcBeAszSq59GeC-137" value="" style="sketch=0;pointerEvents=1;shadow=0;dashed=0;html=1;strokeColor=none;fillColor=#434445;aspect=fixed;labelPosition=center;verticalLabelPosition=bottom;verticalAlign=top;align=center;outlineConnect=0;shape=mxgraph.vvd.monitor;" vertex="1" parent="J-XnqaCcBeAszSq59GeC-132">
          <mxGeometry x="99.2" width="19.900497512437788" height="18.507462686567145" as="geometry" />
        </mxCell>
        <mxCell id="J-XnqaCcBeAszSq59GeC-133" value="" style="sketch=0;pointerEvents=1;shadow=0;dashed=0;html=1;strokeColor=none;fillColor=#434445;aspect=fixed;labelPosition=center;verticalLabelPosition=bottom;verticalAlign=top;align=center;outlineConnect=0;shape=mxgraph.vvd.monitor;" vertex="1" parent="J-XnqaCcBeAszSq59GeC-125">
          <mxGeometry x="130" width="19.900497512437788" height="18.507462686567145" as="geometry" />
        </mxCell>
        <mxCell id="J-XnqaCcBeAszSq59GeC-138" value="" style="group" vertex="1" connectable="0" parent="1">
          <mxGeometry x="100" y="1080" width="477" height="30" as="geometry" />
        </mxCell>
        <mxCell id="J-XnqaCcBeAszSq59GeC-139" value="" style="group" vertex="1" connectable="0" parent="J-XnqaCcBeAszSq59GeC-138">
          <mxGeometry width="130" height="30" as="geometry" />
        </mxCell>
        <mxCell id="J-XnqaCcBeAszSq59GeC-140" value="" style="sketch=0;pointerEvents=1;shadow=0;dashed=0;html=1;strokeColor=none;fillColor=#434445;aspect=fixed;labelPosition=center;verticalLabelPosition=bottom;verticalAlign=top;align=center;outlineConnect=0;shape=mxgraph.vvd.monitor;" vertex="1" parent="J-XnqaCcBeAszSq59GeC-139">
          <mxGeometry width="19.924098671726732" height="18.529411764705863" as="geometry" />
        </mxCell>
        <mxCell id="J-XnqaCcBeAszSq59GeC-141" value="" style="sketch=0;pointerEvents=1;shadow=0;dashed=0;html=1;strokeColor=none;fillColor=#434445;aspect=fixed;labelPosition=center;verticalLabelPosition=bottom;verticalAlign=top;align=center;outlineConnect=0;shape=mxgraph.vvd.monitor;" vertex="1" parent="J-XnqaCcBeAszSq59GeC-139">
          <mxGeometry x="26" width="19.924098671726732" height="18.529411764705863" as="geometry" />
        </mxCell>
        <mxCell id="J-XnqaCcBeAszSq59GeC-142" value="" style="sketch=0;pointerEvents=1;shadow=0;dashed=0;html=1;strokeColor=none;fillColor=#434445;aspect=fixed;labelPosition=center;verticalLabelPosition=bottom;verticalAlign=top;align=center;outlineConnect=0;shape=mxgraph.vvd.monitor;" vertex="1" parent="J-XnqaCcBeAszSq59GeC-139">
          <mxGeometry x="52" width="19.924098671726732" height="18.529411764705863" as="geometry" />
        </mxCell>
        <mxCell id="J-XnqaCcBeAszSq59GeC-143" value="" style="sketch=0;pointerEvents=1;shadow=0;dashed=0;html=1;strokeColor=none;fillColor=#434445;aspect=fixed;labelPosition=center;verticalLabelPosition=bottom;verticalAlign=top;align=center;outlineConnect=0;shape=mxgraph.vvd.monitor;" vertex="1" parent="J-XnqaCcBeAszSq59GeC-139">
          <mxGeometry x="78" width="19.924098671726732" height="18.529411764705863" as="geometry" />
        </mxCell>
        <mxCell id="J-XnqaCcBeAszSq59GeC-144" value="" style="sketch=0;pointerEvents=1;shadow=0;dashed=0;html=1;strokeColor=none;fillColor=#434445;aspect=fixed;labelPosition=center;verticalLabelPosition=bottom;verticalAlign=top;align=center;outlineConnect=0;shape=mxgraph.vvd.monitor;" vertex="1" parent="J-XnqaCcBeAszSq59GeC-139">
          <mxGeometry x="104" width="19.924098671726732" height="18.529411764705863" as="geometry" />
        </mxCell>
        <mxCell id="J-XnqaCcBeAszSq59GeC-145" value="" style="group" vertex="1" connectable="0" parent="J-XnqaCcBeAszSq59GeC-138">
          <mxGeometry x="353" y="5" width="124" height="20" as="geometry" />
        </mxCell>
        <mxCell id="J-XnqaCcBeAszSq59GeC-147" value="" style="sketch=0;pointerEvents=1;shadow=0;dashed=0;html=1;strokeColor=none;fillColor=#434445;aspect=fixed;labelPosition=center;verticalLabelPosition=bottom;verticalAlign=top;align=center;outlineConnect=0;shape=mxgraph.vvd.monitor;" vertex="1" parent="J-XnqaCcBeAszSq59GeC-145">
          <mxGeometry x="24.8" width="19.900497512437788" height="18.507462686567145" as="geometry" />
        </mxCell>
        <mxCell id="J-XnqaCcBeAszSq59GeC-148" value="" style="sketch=0;pointerEvents=1;shadow=0;dashed=0;html=1;strokeColor=none;fillColor=#434445;aspect=fixed;labelPosition=center;verticalLabelPosition=bottom;verticalAlign=top;align=center;outlineConnect=0;shape=mxgraph.vvd.monitor;" vertex="1" parent="J-XnqaCcBeAszSq59GeC-145">
          <mxGeometry x="49.6" width="19.900497512437788" height="18.507462686567145" as="geometry" />
        </mxCell>
        <mxCell id="J-XnqaCcBeAszSq59GeC-149" value="" style="sketch=0;pointerEvents=1;shadow=0;dashed=0;html=1;strokeColor=none;fillColor=#434445;aspect=fixed;labelPosition=center;verticalLabelPosition=bottom;verticalAlign=top;align=center;outlineConnect=0;shape=mxgraph.vvd.monitor;" vertex="1" parent="J-XnqaCcBeAszSq59GeC-145">
          <mxGeometry x="74.39999999999999" width="19.900497512437788" height="18.507462686567145" as="geometry" />
        </mxCell>
        <mxCell id="J-XnqaCcBeAszSq59GeC-150" value="" style="sketch=0;pointerEvents=1;shadow=0;dashed=0;html=1;strokeColor=none;fillColor=#434445;aspect=fixed;labelPosition=center;verticalLabelPosition=bottom;verticalAlign=top;align=center;outlineConnect=0;shape=mxgraph.vvd.monitor;" vertex="1" parent="J-XnqaCcBeAszSq59GeC-145">
          <mxGeometry x="99.2" width="19.900497512437788" height="18.507462686567145" as="geometry" />
        </mxCell>
        <mxCell id="J-XnqaCcBeAszSq59GeC-146" value="" style="sketch=0;pointerEvents=1;shadow=0;dashed=0;html=1;strokeColor=none;fillColor=#434445;aspect=fixed;labelPosition=center;verticalLabelPosition=bottom;verticalAlign=top;align=center;outlineConnect=0;shape=mxgraph.vvd.monitor;" vertex="1" parent="J-XnqaCcBeAszSq59GeC-138">
          <mxGeometry x="130" width="19.900497512437788" height="18.507462686567145" as="geometry" />
        </mxCell>
        <mxCell id="J-XnqaCcBeAszSq59GeC-152" value="" style="group" vertex="1" connectable="0" parent="1">
          <mxGeometry x="100" y="1115" width="130" height="30" as="geometry" />
        </mxCell>
        <mxCell id="J-XnqaCcBeAszSq59GeC-153" value="" style="sketch=0;pointerEvents=1;shadow=0;dashed=0;html=1;strokeColor=none;fillColor=#434445;aspect=fixed;labelPosition=center;verticalLabelPosition=bottom;verticalAlign=top;align=center;outlineConnect=0;shape=mxgraph.vvd.monitor;" vertex="1" parent="J-XnqaCcBeAszSq59GeC-152">
          <mxGeometry width="19.924098671726732" height="18.529411764705863" as="geometry" />
        </mxCell>
        <mxCell id="J-XnqaCcBeAszSq59GeC-154" value="" style="sketch=0;pointerEvents=1;shadow=0;dashed=0;html=1;strokeColor=none;fillColor=#434445;aspect=fixed;labelPosition=center;verticalLabelPosition=bottom;verticalAlign=top;align=center;outlineConnect=0;shape=mxgraph.vvd.monitor;" vertex="1" parent="J-XnqaCcBeAszSq59GeC-152">
          <mxGeometry x="26" width="19.924098671726732" height="18.529411764705863" as="geometry" />
        </mxCell>
        <mxCell id="J-XnqaCcBeAszSq59GeC-155" value="" style="sketch=0;pointerEvents=1;shadow=0;dashed=0;html=1;strokeColor=none;fillColor=#434445;aspect=fixed;labelPosition=center;verticalLabelPosition=bottom;verticalAlign=top;align=center;outlineConnect=0;shape=mxgraph.vvd.monitor;" vertex="1" parent="J-XnqaCcBeAszSq59GeC-152">
          <mxGeometry x="52" width="19.924098671726732" height="18.529411764705863" as="geometry" />
        </mxCell>
        <mxCell id="J-XnqaCcBeAszSq59GeC-156" value="" style="sketch=0;pointerEvents=1;shadow=0;dashed=0;html=1;strokeColor=none;fillColor=#434445;aspect=fixed;labelPosition=center;verticalLabelPosition=bottom;verticalAlign=top;align=center;outlineConnect=0;shape=mxgraph.vvd.monitor;" vertex="1" parent="J-XnqaCcBeAszSq59GeC-152">
          <mxGeometry x="78" width="19.924098671726732" height="18.529411764705863" as="geometry" />
        </mxCell>
        <mxCell id="J-XnqaCcBeAszSq59GeC-157" value="" style="sketch=0;pointerEvents=1;shadow=0;dashed=0;html=1;strokeColor=none;fillColor=#434445;aspect=fixed;labelPosition=center;verticalLabelPosition=bottom;verticalAlign=top;align=center;outlineConnect=0;shape=mxgraph.vvd.monitor;" vertex="1" parent="J-XnqaCcBeAszSq59GeC-152">
          <mxGeometry x="104" width="19.924098671726732" height="18.529411764705863" as="geometry" />
        </mxCell>
        <mxCell id="J-XnqaCcBeAszSq59GeC-165" value="" style="group" vertex="1" connectable="0" parent="1">
          <mxGeometry x="100" y="1160" width="130" height="30" as="geometry" />
        </mxCell>
        <mxCell id="J-XnqaCcBeAszSq59GeC-166" value="" style="sketch=0;pointerEvents=1;shadow=0;dashed=0;html=1;strokeColor=none;fillColor=#434445;aspect=fixed;labelPosition=center;verticalLabelPosition=bottom;verticalAlign=top;align=center;outlineConnect=0;shape=mxgraph.vvd.monitor;" vertex="1" parent="J-XnqaCcBeAszSq59GeC-165">
          <mxGeometry width="19.924098671726732" height="18.529411764705863" as="geometry" />
        </mxCell>
        <mxCell id="J-XnqaCcBeAszSq59GeC-167" value="" style="sketch=0;pointerEvents=1;shadow=0;dashed=0;html=1;strokeColor=none;fillColor=#434445;aspect=fixed;labelPosition=center;verticalLabelPosition=bottom;verticalAlign=top;align=center;outlineConnect=0;shape=mxgraph.vvd.monitor;" vertex="1" parent="J-XnqaCcBeAszSq59GeC-165">
          <mxGeometry x="26" width="19.924098671726732" height="18.529411764705863" as="geometry" />
        </mxCell>
        <mxCell id="J-XnqaCcBeAszSq59GeC-529" value="" style="group" vertex="1" connectable="0" parent="1">
          <mxGeometry x="600" y="830" width="477" height="30" as="geometry" />
        </mxCell>
        <mxCell id="J-XnqaCcBeAszSq59GeC-530" value="" style="group" vertex="1" connectable="0" parent="J-XnqaCcBeAszSq59GeC-529">
          <mxGeometry width="130" height="30" as="geometry" />
        </mxCell>
        <mxCell id="J-XnqaCcBeAszSq59GeC-531" value="" style="sketch=0;pointerEvents=1;shadow=0;dashed=0;html=1;strokeColor=none;fillColor=#434445;aspect=fixed;labelPosition=center;verticalLabelPosition=bottom;verticalAlign=top;align=center;outlineConnect=0;shape=mxgraph.vvd.monitor;" vertex="1" parent="J-XnqaCcBeAszSq59GeC-530">
          <mxGeometry x="10" width="19.924098671726732" height="18.529411764705863" as="geometry" />
        </mxCell>
        <mxCell id="J-XnqaCcBeAszSq59GeC-532" value="" style="sketch=0;pointerEvents=1;shadow=0;dashed=0;html=1;strokeColor=none;fillColor=#434445;aspect=fixed;labelPosition=center;verticalLabelPosition=bottom;verticalAlign=top;align=center;outlineConnect=0;shape=mxgraph.vvd.monitor;" vertex="1" parent="J-XnqaCcBeAszSq59GeC-530">
          <mxGeometry x="40" width="19.924098671726732" height="18.529411764705863" as="geometry" />
        </mxCell>
        <mxCell id="J-XnqaCcBeAszSq59GeC-533" value="" style="sketch=0;pointerEvents=1;shadow=0;dashed=0;html=1;strokeColor=none;fillColor=#434445;aspect=fixed;labelPosition=center;verticalLabelPosition=bottom;verticalAlign=top;align=center;outlineConnect=0;shape=mxgraph.vvd.monitor;" vertex="1" parent="J-XnqaCcBeAszSq59GeC-530">
          <mxGeometry x="66" width="19.924098671726732" height="18.529411764705863" as="geometry" />
        </mxCell>
        <mxCell id="J-XnqaCcBeAszSq59GeC-534" value="" style="sketch=0;pointerEvents=1;shadow=0;dashed=0;html=1;strokeColor=none;fillColor=#434445;aspect=fixed;labelPosition=center;verticalLabelPosition=bottom;verticalAlign=top;align=center;outlineConnect=0;shape=mxgraph.vvd.monitor;" vertex="1" parent="J-XnqaCcBeAszSq59GeC-530">
          <mxGeometry x="92" width="19.924098671726732" height="18.529411764705863" as="geometry" />
        </mxCell>
        <mxCell id="J-XnqaCcBeAszSq59GeC-535" value="" style="sketch=0;pointerEvents=1;shadow=0;dashed=0;html=1;strokeColor=none;fillColor=#434445;aspect=fixed;labelPosition=center;verticalLabelPosition=bottom;verticalAlign=top;align=center;outlineConnect=0;shape=mxgraph.vvd.monitor;" vertex="1" parent="J-XnqaCcBeAszSq59GeC-530">
          <mxGeometry x="118" width="19.924098671726732" height="18.529411764705863" as="geometry" />
        </mxCell>
        <mxCell id="J-XnqaCcBeAszSq59GeC-536" value="" style="group" vertex="1" connectable="0" parent="J-XnqaCcBeAszSq59GeC-529">
          <mxGeometry x="353" y="5" width="124" height="20" as="geometry" />
        </mxCell>
        <mxCell id="J-XnqaCcBeAszSq59GeC-537" value="" style="sketch=0;pointerEvents=1;shadow=0;dashed=0;html=1;strokeColor=none;fillColor=#434445;aspect=fixed;labelPosition=center;verticalLabelPosition=bottom;verticalAlign=top;align=center;outlineConnect=0;shape=mxgraph.vvd.monitor;" vertex="1" parent="J-XnqaCcBeAszSq59GeC-536">
          <mxGeometry x="24.8" width="19.900497512437788" height="18.507462686567145" as="geometry" />
        </mxCell>
        <mxCell id="J-XnqaCcBeAszSq59GeC-538" value="" style="sketch=0;pointerEvents=1;shadow=0;dashed=0;html=1;strokeColor=none;fillColor=#434445;aspect=fixed;labelPosition=center;verticalLabelPosition=bottom;verticalAlign=top;align=center;outlineConnect=0;shape=mxgraph.vvd.monitor;" vertex="1" parent="J-XnqaCcBeAszSq59GeC-536">
          <mxGeometry x="49.6" width="19.900497512437788" height="18.507462686567145" as="geometry" />
        </mxCell>
        <mxCell id="J-XnqaCcBeAszSq59GeC-539" value="" style="sketch=0;pointerEvents=1;shadow=0;dashed=0;html=1;strokeColor=none;fillColor=#434445;aspect=fixed;labelPosition=center;verticalLabelPosition=bottom;verticalAlign=top;align=center;outlineConnect=0;shape=mxgraph.vvd.monitor;" vertex="1" parent="J-XnqaCcBeAszSq59GeC-536">
          <mxGeometry x="74.39999999999999" width="19.900497512437788" height="18.507462686567145" as="geometry" />
        </mxCell>
        <mxCell id="J-XnqaCcBeAszSq59GeC-540" value="" style="sketch=0;pointerEvents=1;shadow=0;dashed=0;html=1;strokeColor=none;fillColor=#434445;aspect=fixed;labelPosition=center;verticalLabelPosition=bottom;verticalAlign=top;align=center;outlineConnect=0;shape=mxgraph.vvd.monitor;" vertex="1" parent="J-XnqaCcBeAszSq59GeC-536">
          <mxGeometry x="99.2" width="19.900497512437788" height="18.507462686567145" as="geometry" />
        </mxCell>
        <mxCell id="J-XnqaCcBeAszSq59GeC-541" value="" style="sketch=0;pointerEvents=1;shadow=0;dashed=0;html=1;strokeColor=none;fillColor=#434445;aspect=fixed;labelPosition=center;verticalLabelPosition=bottom;verticalAlign=top;align=center;outlineConnect=0;shape=mxgraph.vvd.monitor;" vertex="1" parent="J-XnqaCcBeAszSq59GeC-529">
          <mxGeometry x="144" width="19.900497512437788" height="18.507462686567145" as="geometry" />
        </mxCell>
        <mxCell id="J-XnqaCcBeAszSq59GeC-542" value="" style="group" vertex="1" connectable="0" parent="1">
          <mxGeometry x="600" y="870" width="477" height="30" as="geometry" />
        </mxCell>
        <mxCell id="J-XnqaCcBeAszSq59GeC-543" value="" style="group" vertex="1" connectable="0" parent="J-XnqaCcBeAszSq59GeC-542">
          <mxGeometry width="130" height="30" as="geometry" />
        </mxCell>
        <mxCell id="J-XnqaCcBeAszSq59GeC-544" value="" style="sketch=0;pointerEvents=1;shadow=0;dashed=0;html=1;strokeColor=none;fillColor=#434445;aspect=fixed;labelPosition=center;verticalLabelPosition=bottom;verticalAlign=top;align=center;outlineConnect=0;shape=mxgraph.vvd.monitor;" vertex="1" parent="J-XnqaCcBeAszSq59GeC-543">
          <mxGeometry x="10" width="19.924098671726732" height="18.529411764705863" as="geometry" />
        </mxCell>
        <mxCell id="J-XnqaCcBeAszSq59GeC-545" value="" style="sketch=0;pointerEvents=1;shadow=0;dashed=0;html=1;strokeColor=none;fillColor=#434445;aspect=fixed;labelPosition=center;verticalLabelPosition=bottom;verticalAlign=top;align=center;outlineConnect=0;shape=mxgraph.vvd.monitor;" vertex="1" parent="J-XnqaCcBeAszSq59GeC-543">
          <mxGeometry x="40" width="19.924098671726732" height="18.529411764705863" as="geometry" />
        </mxCell>
        <mxCell id="J-XnqaCcBeAszSq59GeC-546" value="" style="sketch=0;pointerEvents=1;shadow=0;dashed=0;html=1;strokeColor=none;fillColor=#434445;aspect=fixed;labelPosition=center;verticalLabelPosition=bottom;verticalAlign=top;align=center;outlineConnect=0;shape=mxgraph.vvd.monitor;" vertex="1" parent="J-XnqaCcBeAszSq59GeC-543">
          <mxGeometry x="66" width="19.924098671726732" height="18.529411764705863" as="geometry" />
        </mxCell>
        <mxCell id="J-XnqaCcBeAszSq59GeC-547" value="" style="sketch=0;pointerEvents=1;shadow=0;dashed=0;html=1;strokeColor=none;fillColor=#434445;aspect=fixed;labelPosition=center;verticalLabelPosition=bottom;verticalAlign=top;align=center;outlineConnect=0;shape=mxgraph.vvd.monitor;" vertex="1" parent="J-XnqaCcBeAszSq59GeC-543">
          <mxGeometry x="92" width="19.924098671726732" height="18.529411764705863" as="geometry" />
        </mxCell>
        <mxCell id="J-XnqaCcBeAszSq59GeC-548" value="" style="sketch=0;pointerEvents=1;shadow=0;dashed=0;html=1;strokeColor=none;fillColor=#434445;aspect=fixed;labelPosition=center;verticalLabelPosition=bottom;verticalAlign=top;align=center;outlineConnect=0;shape=mxgraph.vvd.monitor;" vertex="1" parent="J-XnqaCcBeAszSq59GeC-543">
          <mxGeometry x="118" width="19.924098671726732" height="18.529411764705863" as="geometry" />
        </mxCell>
        <mxCell id="J-XnqaCcBeAszSq59GeC-549" value="" style="group" vertex="1" connectable="0" parent="J-XnqaCcBeAszSq59GeC-542">
          <mxGeometry x="353" y="5" width="124" height="20" as="geometry" />
        </mxCell>
        <mxCell id="J-XnqaCcBeAszSq59GeC-550" value="" style="sketch=0;pointerEvents=1;shadow=0;dashed=0;html=1;strokeColor=none;fillColor=#434445;aspect=fixed;labelPosition=center;verticalLabelPosition=bottom;verticalAlign=top;align=center;outlineConnect=0;shape=mxgraph.vvd.monitor;" vertex="1" parent="J-XnqaCcBeAszSq59GeC-549">
          <mxGeometry x="24.8" width="19.900497512437788" height="18.507462686567145" as="geometry" />
        </mxCell>
        <mxCell id="J-XnqaCcBeAszSq59GeC-551" value="" style="sketch=0;pointerEvents=1;shadow=0;dashed=0;html=1;strokeColor=none;fillColor=#434445;aspect=fixed;labelPosition=center;verticalLabelPosition=bottom;verticalAlign=top;align=center;outlineConnect=0;shape=mxgraph.vvd.monitor;" vertex="1" parent="J-XnqaCcBeAszSq59GeC-549">
          <mxGeometry x="49.6" width="19.900497512437788" height="18.507462686567145" as="geometry" />
        </mxCell>
        <mxCell id="J-XnqaCcBeAszSq59GeC-552" value="" style="sketch=0;pointerEvents=1;shadow=0;dashed=0;html=1;strokeColor=none;fillColor=#434445;aspect=fixed;labelPosition=center;verticalLabelPosition=bottom;verticalAlign=top;align=center;outlineConnect=0;shape=mxgraph.vvd.monitor;" vertex="1" parent="J-XnqaCcBeAszSq59GeC-549">
          <mxGeometry x="74.39999999999999" width="19.900497512437788" height="18.507462686567145" as="geometry" />
        </mxCell>
        <mxCell id="J-XnqaCcBeAszSq59GeC-553" value="" style="sketch=0;pointerEvents=1;shadow=0;dashed=0;html=1;strokeColor=none;fillColor=#434445;aspect=fixed;labelPosition=center;verticalLabelPosition=bottom;verticalAlign=top;align=center;outlineConnect=0;shape=mxgraph.vvd.monitor;" vertex="1" parent="J-XnqaCcBeAszSq59GeC-549">
          <mxGeometry x="99.2" width="19.900497512437788" height="18.507462686567145" as="geometry" />
        </mxCell>
        <mxCell id="J-XnqaCcBeAszSq59GeC-554" value="" style="sketch=0;pointerEvents=1;shadow=0;dashed=0;html=1;strokeColor=none;fillColor=#434445;aspect=fixed;labelPosition=center;verticalLabelPosition=bottom;verticalAlign=top;align=center;outlineConnect=0;shape=mxgraph.vvd.monitor;" vertex="1" parent="J-XnqaCcBeAszSq59GeC-542">
          <mxGeometry x="144" width="19.900497512437788" height="18.507462686567145" as="geometry" />
        </mxCell>
        <mxCell id="J-XnqaCcBeAszSq59GeC-555" value="" style="group" vertex="1" connectable="0" parent="1">
          <mxGeometry x="600" y="920" width="477" height="60" as="geometry" />
        </mxCell>
        <mxCell id="J-XnqaCcBeAszSq59GeC-556" value="" style="group" vertex="1" connectable="0" parent="J-XnqaCcBeAszSq59GeC-555">
          <mxGeometry width="130" height="30" as="geometry" />
        </mxCell>
        <mxCell id="J-XnqaCcBeAszSq59GeC-557" value="" style="sketch=0;pointerEvents=1;shadow=0;dashed=0;html=1;strokeColor=none;fillColor=#434445;aspect=fixed;labelPosition=center;verticalLabelPosition=bottom;verticalAlign=top;align=center;outlineConnect=0;shape=mxgraph.vvd.monitor;" vertex="1" parent="J-XnqaCcBeAszSq59GeC-556">
          <mxGeometry x="10" width="19.924098671726732" height="18.529411764705863" as="geometry" />
        </mxCell>
        <mxCell id="J-XnqaCcBeAszSq59GeC-558" value="" style="sketch=0;pointerEvents=1;shadow=0;dashed=0;html=1;strokeColor=none;fillColor=#434445;aspect=fixed;labelPosition=center;verticalLabelPosition=bottom;verticalAlign=top;align=center;outlineConnect=0;shape=mxgraph.vvd.monitor;" vertex="1" parent="J-XnqaCcBeAszSq59GeC-556">
          <mxGeometry x="40" width="19.924098671726732" height="18.529411764705863" as="geometry" />
        </mxCell>
        <mxCell id="J-XnqaCcBeAszSq59GeC-559" value="" style="sketch=0;pointerEvents=1;shadow=0;dashed=0;html=1;strokeColor=none;fillColor=#434445;aspect=fixed;labelPosition=center;verticalLabelPosition=bottom;verticalAlign=top;align=center;outlineConnect=0;shape=mxgraph.vvd.monitor;" vertex="1" parent="J-XnqaCcBeAszSq59GeC-556">
          <mxGeometry x="66" width="19.924098671726732" height="18.529411764705863" as="geometry" />
        </mxCell>
        <mxCell id="J-XnqaCcBeAszSq59GeC-560" value="" style="sketch=0;pointerEvents=1;shadow=0;dashed=0;html=1;strokeColor=none;fillColor=#434445;aspect=fixed;labelPosition=center;verticalLabelPosition=bottom;verticalAlign=top;align=center;outlineConnect=0;shape=mxgraph.vvd.monitor;" vertex="1" parent="J-XnqaCcBeAszSq59GeC-556">
          <mxGeometry x="92" width="19.924098671726732" height="18.529411764705863" as="geometry" />
        </mxCell>
        <mxCell id="J-XnqaCcBeAszSq59GeC-561" value="" style="sketch=0;pointerEvents=1;shadow=0;dashed=0;html=1;strokeColor=none;fillColor=#434445;aspect=fixed;labelPosition=center;verticalLabelPosition=bottom;verticalAlign=top;align=center;outlineConnect=0;shape=mxgraph.vvd.monitor;" vertex="1" parent="J-XnqaCcBeAszSq59GeC-556">
          <mxGeometry x="118" width="19.924098671726732" height="18.529411764705863" as="geometry" />
        </mxCell>
        <mxCell id="J-XnqaCcBeAszSq59GeC-562" value="" style="group" vertex="1" connectable="0" parent="J-XnqaCcBeAszSq59GeC-555">
          <mxGeometry x="353" y="5" width="124" height="20" as="geometry" />
        </mxCell>
        <mxCell id="J-XnqaCcBeAszSq59GeC-563" value="" style="sketch=0;pointerEvents=1;shadow=0;dashed=0;html=1;strokeColor=none;fillColor=#434445;aspect=fixed;labelPosition=center;verticalLabelPosition=bottom;verticalAlign=top;align=center;outlineConnect=0;shape=mxgraph.vvd.monitor;" vertex="1" parent="J-XnqaCcBeAszSq59GeC-562">
          <mxGeometry x="24.8" width="19.900497512437788" height="18.507462686567145" as="geometry" />
        </mxCell>
        <mxCell id="J-XnqaCcBeAszSq59GeC-564" value="" style="sketch=0;pointerEvents=1;shadow=0;dashed=0;html=1;strokeColor=none;fillColor=#434445;aspect=fixed;labelPosition=center;verticalLabelPosition=bottom;verticalAlign=top;align=center;outlineConnect=0;shape=mxgraph.vvd.monitor;" vertex="1" parent="J-XnqaCcBeAszSq59GeC-562">
          <mxGeometry x="49.6" width="19.900497512437788" height="18.507462686567145" as="geometry" />
        </mxCell>
        <mxCell id="J-XnqaCcBeAszSq59GeC-565" value="" style="sketch=0;pointerEvents=1;shadow=0;dashed=0;html=1;strokeColor=none;fillColor=#434445;aspect=fixed;labelPosition=center;verticalLabelPosition=bottom;verticalAlign=top;align=center;outlineConnect=0;shape=mxgraph.vvd.monitor;" vertex="1" parent="J-XnqaCcBeAszSq59GeC-562">
          <mxGeometry x="74.39999999999999" width="19.900497512437788" height="18.507462686567145" as="geometry" />
        </mxCell>
        <mxCell id="J-XnqaCcBeAszSq59GeC-566" value="" style="sketch=0;pointerEvents=1;shadow=0;dashed=0;html=1;strokeColor=none;fillColor=#434445;aspect=fixed;labelPosition=center;verticalLabelPosition=bottom;verticalAlign=top;align=center;outlineConnect=0;shape=mxgraph.vvd.monitor;" vertex="1" parent="J-XnqaCcBeAszSq59GeC-562">
          <mxGeometry x="99.2" width="19.900497512437788" height="18.507462686567145" as="geometry" />
        </mxCell>
        <mxCell id="J-XnqaCcBeAszSq59GeC-567" value="" style="sketch=0;pointerEvents=1;shadow=0;dashed=0;html=1;strokeColor=none;fillColor=#434445;aspect=fixed;labelPosition=center;verticalLabelPosition=bottom;verticalAlign=top;align=center;outlineConnect=0;shape=mxgraph.vvd.monitor;" vertex="1" parent="J-XnqaCcBeAszSq59GeC-555">
          <mxGeometry x="144" width="19.900497512437788" height="18.507462686567145" as="geometry" />
        </mxCell>
        <mxCell id="J-XnqaCcBeAszSq59GeC-646" value="RACK3-AP002" style="sketch=0;pointerEvents=1;shadow=0;dashed=0;html=1;strokeColor=#d6b656;fillColor=#fff2cc;aspect=fixed;labelPosition=center;verticalLabelPosition=bottom;verticalAlign=top;align=center;outlineConnect=0;shape=mxgraph.vvd.wi_fi;fontSize=6;" vertex="1" parent="J-XnqaCcBeAszSq59GeC-555">
          <mxGeometry x="250" y="20" width="40" height="40" as="geometry" />
        </mxCell>
        <mxCell id="J-XnqaCcBeAszSq59GeC-568" value="" style="group" vertex="1" connectable="0" parent="1">
          <mxGeometry x="600" y="960" width="477" height="38.50999999999999" as="geometry" />
        </mxCell>
        <mxCell id="J-XnqaCcBeAszSq59GeC-569" value="" style="group" vertex="1" connectable="0" parent="J-XnqaCcBeAszSq59GeC-568">
          <mxGeometry width="130" height="30" as="geometry" />
        </mxCell>
        <mxCell id="J-XnqaCcBeAszSq59GeC-570" value="" style="sketch=0;pointerEvents=1;shadow=0;dashed=0;html=1;strokeColor=none;fillColor=#434445;aspect=fixed;labelPosition=center;verticalLabelPosition=bottom;verticalAlign=top;align=center;outlineConnect=0;shape=mxgraph.vvd.monitor;" vertex="1" parent="J-XnqaCcBeAszSq59GeC-569">
          <mxGeometry x="10" width="19.924098671726732" height="18.529411764705863" as="geometry" />
        </mxCell>
        <mxCell id="J-XnqaCcBeAszSq59GeC-571" value="" style="sketch=0;pointerEvents=1;shadow=0;dashed=0;html=1;strokeColor=none;fillColor=#434445;aspect=fixed;labelPosition=center;verticalLabelPosition=bottom;verticalAlign=top;align=center;outlineConnect=0;shape=mxgraph.vvd.monitor;" vertex="1" parent="J-XnqaCcBeAszSq59GeC-569">
          <mxGeometry x="40" width="19.924098671726732" height="18.529411764705863" as="geometry" />
        </mxCell>
        <mxCell id="J-XnqaCcBeAszSq59GeC-572" value="" style="sketch=0;pointerEvents=1;shadow=0;dashed=0;html=1;strokeColor=none;fillColor=#434445;aspect=fixed;labelPosition=center;verticalLabelPosition=bottom;verticalAlign=top;align=center;outlineConnect=0;shape=mxgraph.vvd.monitor;" vertex="1" parent="J-XnqaCcBeAszSq59GeC-569">
          <mxGeometry x="66" width="19.924098671726732" height="18.529411764705863" as="geometry" />
        </mxCell>
        <mxCell id="J-XnqaCcBeAszSq59GeC-573" value="" style="sketch=0;pointerEvents=1;shadow=0;dashed=0;html=1;strokeColor=none;fillColor=#434445;aspect=fixed;labelPosition=center;verticalLabelPosition=bottom;verticalAlign=top;align=center;outlineConnect=0;shape=mxgraph.vvd.monitor;" vertex="1" parent="J-XnqaCcBeAszSq59GeC-569">
          <mxGeometry x="92" width="19.924098671726732" height="18.529411764705863" as="geometry" />
        </mxCell>
        <mxCell id="J-XnqaCcBeAszSq59GeC-574" value="" style="sketch=0;pointerEvents=1;shadow=0;dashed=0;html=1;strokeColor=none;fillColor=#434445;aspect=fixed;labelPosition=center;verticalLabelPosition=bottom;verticalAlign=top;align=center;outlineConnect=0;shape=mxgraph.vvd.monitor;" vertex="1" parent="J-XnqaCcBeAszSq59GeC-569">
          <mxGeometry x="118" width="19.924098671726732" height="18.529411764705863" as="geometry" />
        </mxCell>
        <mxCell id="J-XnqaCcBeAszSq59GeC-575" value="" style="group" vertex="1" connectable="0" parent="J-XnqaCcBeAszSq59GeC-568">
          <mxGeometry x="353" y="5" width="124" height="20" as="geometry" />
        </mxCell>
        <mxCell id="J-XnqaCcBeAszSq59GeC-576" value="" style="sketch=0;pointerEvents=1;shadow=0;dashed=0;html=1;strokeColor=none;fillColor=#434445;aspect=fixed;labelPosition=center;verticalLabelPosition=bottom;verticalAlign=top;align=center;outlineConnect=0;shape=mxgraph.vvd.monitor;" vertex="1" parent="J-XnqaCcBeAszSq59GeC-575">
          <mxGeometry x="24.8" width="19.900497512437788" height="18.507462686567145" as="geometry" />
        </mxCell>
        <mxCell id="J-XnqaCcBeAszSq59GeC-577" value="" style="sketch=0;pointerEvents=1;shadow=0;dashed=0;html=1;strokeColor=none;fillColor=#434445;aspect=fixed;labelPosition=center;verticalLabelPosition=bottom;verticalAlign=top;align=center;outlineConnect=0;shape=mxgraph.vvd.monitor;" vertex="1" parent="J-XnqaCcBeAszSq59GeC-575">
          <mxGeometry x="49.6" width="19.900497512437788" height="18.507462686567145" as="geometry" />
        </mxCell>
        <mxCell id="J-XnqaCcBeAszSq59GeC-578" value="" style="sketch=0;pointerEvents=1;shadow=0;dashed=0;html=1;strokeColor=none;fillColor=#434445;aspect=fixed;labelPosition=center;verticalLabelPosition=bottom;verticalAlign=top;align=center;outlineConnect=0;shape=mxgraph.vvd.monitor;" vertex="1" parent="J-XnqaCcBeAszSq59GeC-575">
          <mxGeometry x="74.39999999999999" width="19.900497512437788" height="18.507462686567145" as="geometry" />
        </mxCell>
        <mxCell id="J-XnqaCcBeAszSq59GeC-579" value="" style="sketch=0;pointerEvents=1;shadow=0;dashed=0;html=1;strokeColor=none;fillColor=#434445;aspect=fixed;labelPosition=center;verticalLabelPosition=bottom;verticalAlign=top;align=center;outlineConnect=0;shape=mxgraph.vvd.monitor;" vertex="1" parent="J-XnqaCcBeAszSq59GeC-575">
          <mxGeometry x="99.2" width="19.900497512437788" height="18.507462686567145" as="geometry" />
        </mxCell>
        <mxCell id="J-XnqaCcBeAszSq59GeC-580" value="" style="sketch=0;pointerEvents=1;shadow=0;dashed=0;html=1;strokeColor=none;fillColor=#434445;aspect=fixed;labelPosition=center;verticalLabelPosition=bottom;verticalAlign=top;align=center;outlineConnect=0;shape=mxgraph.vvd.monitor;" vertex="1" parent="J-XnqaCcBeAszSq59GeC-568">
          <mxGeometry x="144" width="19.900497512437788" height="18.507462686567145" as="geometry" />
        </mxCell>
        <mxCell id="J-XnqaCcBeAszSq59GeC-653" value="&lt;font color=&quot;#000000&quot;&gt;RACK4-IMP003&lt;/font&gt;" style="sketch=0;pointerEvents=1;shadow=0;dashed=0;html=1;strokeColor=#b85450;fillColor=#f8cecc;aspect=fixed;labelPosition=center;verticalLabelPosition=bottom;verticalAlign=top;align=center;outlineConnect=0;shape=mxgraph.vvd.ethernet_port;fontSize=6;" vertex="1" parent="J-XnqaCcBeAszSq59GeC-568">
          <mxGeometry x="290" y="18.50999999999999" width="20" height="20" as="geometry" />
        </mxCell>
        <mxCell id="J-XnqaCcBeAszSq59GeC-581" value="" style="group" vertex="1" connectable="0" parent="1">
          <mxGeometry x="600" y="1010" width="477" height="30" as="geometry" />
        </mxCell>
        <mxCell id="J-XnqaCcBeAszSq59GeC-582" value="" style="group" vertex="1" connectable="0" parent="J-XnqaCcBeAszSq59GeC-581">
          <mxGeometry width="130" height="30" as="geometry" />
        </mxCell>
        <mxCell id="J-XnqaCcBeAszSq59GeC-583" value="" style="sketch=0;pointerEvents=1;shadow=0;dashed=0;html=1;strokeColor=none;fillColor=#434445;aspect=fixed;labelPosition=center;verticalLabelPosition=bottom;verticalAlign=top;align=center;outlineConnect=0;shape=mxgraph.vvd.monitor;" vertex="1" parent="J-XnqaCcBeAszSq59GeC-582">
          <mxGeometry x="10" width="19.924098671726732" height="18.529411764705863" as="geometry" />
        </mxCell>
        <mxCell id="J-XnqaCcBeAszSq59GeC-584" value="" style="sketch=0;pointerEvents=1;shadow=0;dashed=0;html=1;strokeColor=none;fillColor=#434445;aspect=fixed;labelPosition=center;verticalLabelPosition=bottom;verticalAlign=top;align=center;outlineConnect=0;shape=mxgraph.vvd.monitor;" vertex="1" parent="J-XnqaCcBeAszSq59GeC-582">
          <mxGeometry x="40" width="19.924098671726732" height="18.529411764705863" as="geometry" />
        </mxCell>
        <mxCell id="J-XnqaCcBeAszSq59GeC-585" value="" style="sketch=0;pointerEvents=1;shadow=0;dashed=0;html=1;strokeColor=none;fillColor=#434445;aspect=fixed;labelPosition=center;verticalLabelPosition=bottom;verticalAlign=top;align=center;outlineConnect=0;shape=mxgraph.vvd.monitor;" vertex="1" parent="J-XnqaCcBeAszSq59GeC-582">
          <mxGeometry x="66" width="19.924098671726732" height="18.529411764705863" as="geometry" />
        </mxCell>
        <mxCell id="J-XnqaCcBeAszSq59GeC-586" value="" style="sketch=0;pointerEvents=1;shadow=0;dashed=0;html=1;strokeColor=none;fillColor=#434445;aspect=fixed;labelPosition=center;verticalLabelPosition=bottom;verticalAlign=top;align=center;outlineConnect=0;shape=mxgraph.vvd.monitor;" vertex="1" parent="J-XnqaCcBeAszSq59GeC-582">
          <mxGeometry x="92" width="19.924098671726732" height="18.529411764705863" as="geometry" />
        </mxCell>
        <mxCell id="J-XnqaCcBeAszSq59GeC-587" value="" style="sketch=0;pointerEvents=1;shadow=0;dashed=0;html=1;strokeColor=none;fillColor=#434445;aspect=fixed;labelPosition=center;verticalLabelPosition=bottom;verticalAlign=top;align=center;outlineConnect=0;shape=mxgraph.vvd.monitor;" vertex="1" parent="J-XnqaCcBeAszSq59GeC-582">
          <mxGeometry x="118" width="19.924098671726732" height="18.529411764705863" as="geometry" />
        </mxCell>
        <mxCell id="J-XnqaCcBeAszSq59GeC-588" value="" style="group" vertex="1" connectable="0" parent="J-XnqaCcBeAszSq59GeC-581">
          <mxGeometry x="353" y="5" width="124" height="20" as="geometry" />
        </mxCell>
        <mxCell id="J-XnqaCcBeAszSq59GeC-589" value="" style="sketch=0;pointerEvents=1;shadow=0;dashed=0;html=1;strokeColor=none;fillColor=#434445;aspect=fixed;labelPosition=center;verticalLabelPosition=bottom;verticalAlign=top;align=center;outlineConnect=0;shape=mxgraph.vvd.monitor;" vertex="1" parent="J-XnqaCcBeAszSq59GeC-588">
          <mxGeometry x="24.8" width="19.900497512437788" height="18.507462686567145" as="geometry" />
        </mxCell>
        <mxCell id="J-XnqaCcBeAszSq59GeC-590" value="" style="sketch=0;pointerEvents=1;shadow=0;dashed=0;html=1;strokeColor=none;fillColor=#434445;aspect=fixed;labelPosition=center;verticalLabelPosition=bottom;verticalAlign=top;align=center;outlineConnect=0;shape=mxgraph.vvd.monitor;" vertex="1" parent="J-XnqaCcBeAszSq59GeC-588">
          <mxGeometry x="49.6" width="19.900497512437788" height="18.507462686567145" as="geometry" />
        </mxCell>
        <mxCell id="J-XnqaCcBeAszSq59GeC-591" value="" style="sketch=0;pointerEvents=1;shadow=0;dashed=0;html=1;strokeColor=none;fillColor=#434445;aspect=fixed;labelPosition=center;verticalLabelPosition=bottom;verticalAlign=top;align=center;outlineConnect=0;shape=mxgraph.vvd.monitor;" vertex="1" parent="J-XnqaCcBeAszSq59GeC-588">
          <mxGeometry x="74.39999999999999" width="19.900497512437788" height="18.507462686567145" as="geometry" />
        </mxCell>
        <mxCell id="J-XnqaCcBeAszSq59GeC-592" value="" style="sketch=0;pointerEvents=1;shadow=0;dashed=0;html=1;strokeColor=none;fillColor=#434445;aspect=fixed;labelPosition=center;verticalLabelPosition=bottom;verticalAlign=top;align=center;outlineConnect=0;shape=mxgraph.vvd.monitor;" vertex="1" parent="J-XnqaCcBeAszSq59GeC-588">
          <mxGeometry x="99.2" width="19.900497512437788" height="18.507462686567145" as="geometry" />
        </mxCell>
        <mxCell id="J-XnqaCcBeAszSq59GeC-593" value="" style="sketch=0;pointerEvents=1;shadow=0;dashed=0;html=1;strokeColor=none;fillColor=#434445;aspect=fixed;labelPosition=center;verticalLabelPosition=bottom;verticalAlign=top;align=center;outlineConnect=0;shape=mxgraph.vvd.monitor;" vertex="1" parent="J-XnqaCcBeAszSq59GeC-581">
          <mxGeometry x="144" width="19.900497512437788" height="18.507462686567145" as="geometry" />
        </mxCell>
        <mxCell id="J-XnqaCcBeAszSq59GeC-594" value="" style="group" vertex="1" connectable="0" parent="1">
          <mxGeometry x="600" y="1060" width="477" height="30" as="geometry" />
        </mxCell>
        <mxCell id="J-XnqaCcBeAszSq59GeC-595" value="" style="group" vertex="1" connectable="0" parent="J-XnqaCcBeAszSq59GeC-594">
          <mxGeometry width="130" height="30" as="geometry" />
        </mxCell>
        <mxCell id="J-XnqaCcBeAszSq59GeC-596" value="" style="sketch=0;pointerEvents=1;shadow=0;dashed=0;html=1;strokeColor=none;fillColor=#434445;aspect=fixed;labelPosition=center;verticalLabelPosition=bottom;verticalAlign=top;align=center;outlineConnect=0;shape=mxgraph.vvd.monitor;" vertex="1" parent="J-XnqaCcBeAszSq59GeC-595">
          <mxGeometry x="10" width="19.924098671726732" height="18.529411764705863" as="geometry" />
        </mxCell>
        <mxCell id="J-XnqaCcBeAszSq59GeC-597" value="" style="sketch=0;pointerEvents=1;shadow=0;dashed=0;html=1;strokeColor=none;fillColor=#434445;aspect=fixed;labelPosition=center;verticalLabelPosition=bottom;verticalAlign=top;align=center;outlineConnect=0;shape=mxgraph.vvd.monitor;" vertex="1" parent="J-XnqaCcBeAszSq59GeC-595">
          <mxGeometry x="40" width="19.924098671726732" height="18.529411764705863" as="geometry" />
        </mxCell>
        <mxCell id="J-XnqaCcBeAszSq59GeC-598" value="" style="sketch=0;pointerEvents=1;shadow=0;dashed=0;html=1;strokeColor=none;fillColor=#434445;aspect=fixed;labelPosition=center;verticalLabelPosition=bottom;verticalAlign=top;align=center;outlineConnect=0;shape=mxgraph.vvd.monitor;" vertex="1" parent="J-XnqaCcBeAszSq59GeC-595">
          <mxGeometry x="66" width="19.924098671726732" height="18.529411764705863" as="geometry" />
        </mxCell>
        <mxCell id="J-XnqaCcBeAszSq59GeC-599" value="" style="sketch=0;pointerEvents=1;shadow=0;dashed=0;html=1;strokeColor=none;fillColor=#434445;aspect=fixed;labelPosition=center;verticalLabelPosition=bottom;verticalAlign=top;align=center;outlineConnect=0;shape=mxgraph.vvd.monitor;" vertex="1" parent="J-XnqaCcBeAszSq59GeC-595">
          <mxGeometry x="92" width="19.924098671726732" height="18.529411764705863" as="geometry" />
        </mxCell>
        <mxCell id="J-XnqaCcBeAszSq59GeC-600" value="" style="sketch=0;pointerEvents=1;shadow=0;dashed=0;html=1;strokeColor=none;fillColor=#434445;aspect=fixed;labelPosition=center;verticalLabelPosition=bottom;verticalAlign=top;align=center;outlineConnect=0;shape=mxgraph.vvd.monitor;" vertex="1" parent="J-XnqaCcBeAszSq59GeC-595">
          <mxGeometry x="118" width="19.924098671726732" height="18.529411764705863" as="geometry" />
        </mxCell>
        <mxCell id="J-XnqaCcBeAszSq59GeC-601" value="" style="group" vertex="1" connectable="0" parent="J-XnqaCcBeAszSq59GeC-594">
          <mxGeometry x="353" y="5" width="124" height="20" as="geometry" />
        </mxCell>
        <mxCell id="J-XnqaCcBeAszSq59GeC-602" value="" style="sketch=0;pointerEvents=1;shadow=0;dashed=0;html=1;strokeColor=none;fillColor=#434445;aspect=fixed;labelPosition=center;verticalLabelPosition=bottom;verticalAlign=top;align=center;outlineConnect=0;shape=mxgraph.vvd.monitor;" vertex="1" parent="J-XnqaCcBeAszSq59GeC-601">
          <mxGeometry x="24.8" width="19.900497512437788" height="18.507462686567145" as="geometry" />
        </mxCell>
        <mxCell id="J-XnqaCcBeAszSq59GeC-603" value="" style="sketch=0;pointerEvents=1;shadow=0;dashed=0;html=1;strokeColor=none;fillColor=#434445;aspect=fixed;labelPosition=center;verticalLabelPosition=bottom;verticalAlign=top;align=center;outlineConnect=0;shape=mxgraph.vvd.monitor;" vertex="1" parent="J-XnqaCcBeAszSq59GeC-601">
          <mxGeometry x="49.6" width="19.900497512437788" height="18.507462686567145" as="geometry" />
        </mxCell>
        <mxCell id="J-XnqaCcBeAszSq59GeC-604" value="" style="sketch=0;pointerEvents=1;shadow=0;dashed=0;html=1;strokeColor=none;fillColor=#434445;aspect=fixed;labelPosition=center;verticalLabelPosition=bottom;verticalAlign=top;align=center;outlineConnect=0;shape=mxgraph.vvd.monitor;" vertex="1" parent="J-XnqaCcBeAszSq59GeC-601">
          <mxGeometry x="74.39999999999999" width="19.900497512437788" height="18.507462686567145" as="geometry" />
        </mxCell>
        <mxCell id="J-XnqaCcBeAszSq59GeC-605" value="" style="sketch=0;pointerEvents=1;shadow=0;dashed=0;html=1;strokeColor=none;fillColor=#434445;aspect=fixed;labelPosition=center;verticalLabelPosition=bottom;verticalAlign=top;align=center;outlineConnect=0;shape=mxgraph.vvd.monitor;" vertex="1" parent="J-XnqaCcBeAszSq59GeC-601">
          <mxGeometry x="99.2" width="19.900497512437788" height="18.507462686567145" as="geometry" />
        </mxCell>
        <mxCell id="J-XnqaCcBeAszSq59GeC-606" value="" style="sketch=0;pointerEvents=1;shadow=0;dashed=0;html=1;strokeColor=none;fillColor=#434445;aspect=fixed;labelPosition=center;verticalLabelPosition=bottom;verticalAlign=top;align=center;outlineConnect=0;shape=mxgraph.vvd.monitor;" vertex="1" parent="J-XnqaCcBeAszSq59GeC-594">
          <mxGeometry x="144" width="19.900497512437788" height="18.507462686567145" as="geometry" />
        </mxCell>
        <mxCell id="J-XnqaCcBeAszSq59GeC-607" value="" style="sketch=0;pointerEvents=1;shadow=0;dashed=0;html=1;strokeColor=none;fillColor=#434445;aspect=fixed;labelPosition=center;verticalLabelPosition=bottom;verticalAlign=top;align=center;outlineConnect=0;shape=mxgraph.vvd.monitor;" vertex="1" parent="1">
          <mxGeometry x="610" y="1099.98" width="19.924098671726732" height="18.529411764705863" as="geometry" />
        </mxCell>
        <mxCell id="J-XnqaCcBeAszSq59GeC-608" value="" style="sketch=0;pointerEvents=1;shadow=0;dashed=0;html=1;strokeColor=none;fillColor=#434445;aspect=fixed;labelPosition=center;verticalLabelPosition=bottom;verticalAlign=top;align=center;outlineConnect=0;shape=mxgraph.vvd.monitor;" vertex="1" parent="1">
          <mxGeometry x="640" y="1100" width="19.924098671726732" height="18.529411764705863" as="geometry" />
        </mxCell>
        <mxCell id="J-XnqaCcBeAszSq59GeC-609" value="" style="sketch=0;pointerEvents=1;shadow=0;dashed=0;html=1;strokeColor=none;fillColor=#434445;aspect=fixed;labelPosition=center;verticalLabelPosition=bottom;verticalAlign=top;align=center;outlineConnect=0;shape=mxgraph.vvd.monitor;" vertex="1" parent="1">
          <mxGeometry x="666" y="1100" width="19.924098671726732" height="18.529411764705863" as="geometry" />
        </mxCell>
        <mxCell id="J-XnqaCcBeAszSq59GeC-610" value="" style="sketch=0;pointerEvents=1;shadow=0;dashed=0;html=1;strokeColor=none;fillColor=#434445;aspect=fixed;labelPosition=center;verticalLabelPosition=bottom;verticalAlign=top;align=center;outlineConnect=0;shape=mxgraph.vvd.monitor;" vertex="1" parent="1">
          <mxGeometry x="692" y="1100" width="19.924098671726732" height="18.529411764705863" as="geometry" />
        </mxCell>
        <mxCell id="J-XnqaCcBeAszSq59GeC-611" value="" style="sketch=0;pointerEvents=1;shadow=0;dashed=0;html=1;strokeColor=none;fillColor=#434445;aspect=fixed;labelPosition=center;verticalLabelPosition=bottom;verticalAlign=top;align=center;outlineConnect=0;shape=mxgraph.vvd.monitor;" vertex="1" parent="1">
          <mxGeometry x="718" y="1100" width="19.924098671726732" height="18.529411764705863" as="geometry" />
        </mxCell>
        <mxCell id="J-XnqaCcBeAszSq59GeC-612" value="" style="sketch=0;pointerEvents=1;shadow=0;dashed=0;html=1;strokeColor=none;fillColor=#434445;aspect=fixed;labelPosition=center;verticalLabelPosition=bottom;verticalAlign=top;align=center;outlineConnect=0;shape=mxgraph.vvd.monitor;" vertex="1" parent="1">
          <mxGeometry x="977.8" y="1105" width="19.900497512437788" height="18.507462686567145" as="geometry" />
        </mxCell>
        <mxCell id="J-XnqaCcBeAszSq59GeC-613" value="" style="sketch=0;pointerEvents=1;shadow=0;dashed=0;html=1;strokeColor=none;fillColor=#434445;aspect=fixed;labelPosition=center;verticalLabelPosition=bottom;verticalAlign=top;align=center;outlineConnect=0;shape=mxgraph.vvd.monitor;" vertex="1" parent="1">
          <mxGeometry x="1002.6" y="1105" width="19.900497512437788" height="18.507462686567145" as="geometry" />
        </mxCell>
        <mxCell id="J-XnqaCcBeAszSq59GeC-614" value="" style="sketch=0;pointerEvents=1;shadow=0;dashed=0;html=1;strokeColor=none;fillColor=#434445;aspect=fixed;labelPosition=center;verticalLabelPosition=bottom;verticalAlign=top;align=center;outlineConnect=0;shape=mxgraph.vvd.monitor;" vertex="1" parent="1">
          <mxGeometry x="1027.4" y="1105" width="19.900497512437788" height="18.507462686567145" as="geometry" />
        </mxCell>
        <mxCell id="J-XnqaCcBeAszSq59GeC-615" value="" style="sketch=0;pointerEvents=1;shadow=0;dashed=0;html=1;strokeColor=none;fillColor=#434445;aspect=fixed;labelPosition=center;verticalLabelPosition=bottom;verticalAlign=top;align=center;outlineConnect=0;shape=mxgraph.vvd.monitor;" vertex="1" parent="1">
          <mxGeometry x="1052.2" y="1105" width="19.900497512437788" height="18.507462686567145" as="geometry" />
        </mxCell>
        <mxCell id="J-XnqaCcBeAszSq59GeC-616" value="" style="sketch=0;pointerEvents=1;shadow=0;dashed=0;html=1;strokeColor=none;fillColor=#434445;aspect=fixed;labelPosition=center;verticalLabelPosition=bottom;verticalAlign=top;align=center;outlineConnect=0;shape=mxgraph.vvd.monitor;" vertex="1" parent="1">
          <mxGeometry x="744" y="1100" width="19.900497512437788" height="18.507462686567145" as="geometry" />
        </mxCell>
        <mxCell id="J-XnqaCcBeAszSq59GeC-627" value="BIO01" style="fontColor=#0066CC;verticalAlign=top;verticalLabelPosition=bottom;labelPosition=center;align=center;html=1;outlineConnect=0;fillColor=#CCCCCC;strokeColor=#6881B3;gradientColor=none;gradientDirection=north;strokeWidth=2;shape=mxgraph.networks.biometric_reader;fontSize=6;" vertex="1" parent="1">
          <mxGeometry x="480" y="1230" width="30" height="30" as="geometry" />
        </mxCell>
        <mxCell id="J-XnqaCcBeAszSq59GeC-628" value="BIO02" style="fontColor=#0066CC;verticalAlign=top;verticalLabelPosition=bottom;labelPosition=center;align=center;html=1;outlineConnect=0;fillColor=#CCCCCC;strokeColor=#6881B3;gradientColor=none;gradientDirection=north;strokeWidth=2;shape=mxgraph.networks.biometric_reader;fontSize=6;" vertex="1" parent="1">
          <mxGeometry x="414" y="590" width="30" height="30" as="geometry" />
        </mxCell>
        <mxCell id="J-XnqaCcBeAszSq59GeC-630" value="RACK3-CAM01" style="shape=image;html=1;verticalAlign=middle;verticalLabelPosition=middle;labelBackgroundColor=#ffffff;imageAspect=0;aspect=fixed;image=https://cdn1.iconfinder.com/data/icons/web-and-mobile-in-square/100/WebInSquare_1.5EXTENDED-24-128.png;fontSize=6;labelPosition=left;align=right;imageBackground=#00CC66;" vertex="1" parent="1">
          <mxGeometry x="560" y="730" width="30" height="30" as="geometry" />
        </mxCell>
        <mxCell id="J-XnqaCcBeAszSq59GeC-640" value="RACK4-CAM01" style="shape=image;html=1;verticalAlign=middle;verticalLabelPosition=middle;labelBackgroundColor=#ffffff;imageAspect=0;aspect=fixed;image=https://cdn1.iconfinder.com/data/icons/web-and-mobile-in-square/100/WebInSquare_1.5EXTENDED-24-128.png;fontSize=6;labelPosition=left;align=right;imageBackground=#00CC66;" vertex="1" parent="1">
          <mxGeometry x="1049.44" y="1190" width="30" height="30" as="geometry" />
        </mxCell>
        <mxCell id="J-XnqaCcBeAszSq59GeC-643" value="RACK3-CAM02" style="shape=image;html=1;verticalAlign=middle;verticalLabelPosition=middle;labelBackgroundColor=#ffffff;imageAspect=0;aspect=fixed;image=https://cdn1.iconfinder.com/data/icons/web-and-mobile-in-square/100/WebInSquare_1.5EXTENDED-24-128.png;fontSize=6;labelPosition=right;align=left;imageBackground=#00CC66;" vertex="1" parent="1">
          <mxGeometry x="80" y="1230" width="30" height="30" as="geometry" />
        </mxCell>
        <mxCell id="J-XnqaCcBeAszSq59GeC-647" value="" style="fontColor=#0066CC;verticalAlign=top;verticalLabelPosition=bottom;labelPosition=center;align=center;html=1;outlineConnect=0;fillColor=#CCCCCC;strokeColor=#6881B3;gradientColor=none;gradientDirection=north;strokeWidth=2;shape=mxgraph.networks.printer;fontSize=6;" vertex="1" parent="1">
          <mxGeometry x="710" y="1170" width="53.9" height="35" as="geometry" />
        </mxCell>
        <mxCell id="J-XnqaCcBeAszSq59GeC-648" value="&lt;font color=&quot;#000000&quot;&gt;RACK4-IMP003&lt;/font&gt;" style="sketch=0;pointerEvents=1;shadow=0;dashed=0;html=1;strokeColor=#b85450;fillColor=#f8cecc;aspect=fixed;labelPosition=center;verticalLabelPosition=bottom;verticalAlign=top;align=center;outlineConnect=0;shape=mxgraph.vvd.ethernet_port;fontSize=6;" vertex="1" parent="1">
          <mxGeometry x="760" y="1185" width="20" height="20" as="geometry" />
        </mxCell>
        <mxCell id="J-XnqaCcBeAszSq59GeC-649" value="&lt;font color=&quot;#000000&quot;&gt;RACK4-CHN001&lt;/font&gt;" style="html=1;outlineConnect=0;fillColor=#CCCCCC;strokeColor=#6881B3;gradientColor=none;gradientDirection=north;strokeWidth=2;shape=mxgraph.networks.bus;gradientColor=none;gradientDirection=north;fontColor=#ffffff;perimeter=backbonePerimeter;backboneSize=20;fontSize=6;direction=south;labelPosition=left;verticalLabelPosition=middle;align=right;verticalAlign=middle;" vertex="1" parent="1">
          <mxGeometry x="920" y="725" width="20" height="85" as="geometry" />
        </mxCell>
        <mxCell id="J-XnqaCcBeAszSq59GeC-650" value="&lt;font color=&quot;#000000&quot;&gt;RACK4-IMP003&lt;/font&gt;" style="sketch=0;pointerEvents=1;shadow=0;dashed=0;html=1;strokeColor=#b85450;fillColor=#f8cecc;aspect=fixed;labelPosition=center;verticalLabelPosition=bottom;verticalAlign=top;align=center;outlineConnect=0;shape=mxgraph.vvd.ethernet_port;fontSize=6;" vertex="1" parent="1">
          <mxGeometry x="977.7" y="1190" width="20" height="20" as="geometry" />
        </mxCell>
        <mxCell id="J-XnqaCcBeAszSq59GeC-651" value="&lt;font color=&quot;#000000&quot;&gt;RACK4-IMP003&lt;/font&gt;" style="sketch=0;pointerEvents=1;shadow=0;dashed=0;html=1;strokeColor=#b85450;fillColor=#f8cecc;aspect=fixed;labelPosition=center;verticalLabelPosition=bottom;verticalAlign=top;align=center;outlineConnect=0;shape=mxgraph.vvd.ethernet_port;fontSize=6;" vertex="1" parent="1">
          <mxGeometry x="100" y="1250" width="20" height="20" as="geometry" />
        </mxCell>
        <mxCell id="J-XnqaCcBeAszSq59GeC-652" value="&lt;font color=&quot;#000000&quot;&gt;RACK4-IMP003&lt;/font&gt;" style="sketch=0;pointerEvents=1;shadow=0;dashed=0;html=1;strokeColor=#b85450;fillColor=#f8cecc;aspect=fixed;labelPosition=center;verticalLabelPosition=bottom;verticalAlign=top;align=center;outlineConnect=0;shape=mxgraph.vvd.ethernet_port;fontSize=6;" vertex="1" parent="1">
          <mxGeometry x="540" y="745" width="20" height="20" as="geometry" />
        </mxCell>
        <mxCell id="J-XnqaCcBeAszSq59GeC-655" value="&lt;font color=&quot;#000000&quot;&gt;RACK4-IMP003&lt;/font&gt;" style="sketch=0;pointerEvents=1;shadow=0;dashed=0;html=1;strokeColor=#b85450;fillColor=#f8cecc;aspect=fixed;labelPosition=center;verticalLabelPosition=bottom;verticalAlign=top;align=center;outlineConnect=0;shape=mxgraph.vvd.ethernet_port;fontSize=6;" vertex="1" parent="1">
          <mxGeometry x="900" y="740" width="20" height="20" as="geometry" />
        </mxCell>
        <mxCell id="J-XnqaCcBeAszSq59GeC-656" value="&lt;font color=&quot;#000000&quot;&gt;RACK4-IMP003&lt;/font&gt;" style="sketch=0;pointerEvents=1;shadow=0;dashed=0;html=1;strokeColor=#b85450;fillColor=#f8cecc;aspect=fixed;labelPosition=center;verticalLabelPosition=bottom;verticalAlign=top;align=center;outlineConnect=0;shape=mxgraph.vvd.ethernet_port;fontSize=6;" vertex="1" parent="1">
          <mxGeometry x="505" y="1250" width="20" height="20" as="geometry" />
        </mxCell>
      </root>
    </mxGraphModel>
  </diagram>
</mxfile>
